#N canvas 35 73 1693 620 12;
#X obj 94 10 inlet;
#X obj 1652 360 switch~;
#X obj 94 53 list split 2;
#X obj 173 154 list split 1;
#X text 277 436 Set receive name;
#X obj 398 437 symbol \$1;
#X obj 499 357 loadbang;
#N canvas 0 38 450 216 receive-\$0 0;
#X obj 145 115 r fader1;
#X obj 145 150 s out-1246;
#X connect 0 0 1 0;
#X restore 180 480 pd receive-\$0;
#X obj 180 506 r out-\$0;
#X msg 428 528 clear \, obj 145 115 r \$1 \, obj 145 150 s out-\$2 \, connect 0 0 1 0;
#X obj 428 565 s pd-receive-\$0;
#X obj 429 506 pack s \$0;
#X obj 499 400 t b b;
#X obj 362 480 sel symbol;
#X msg 528 429 symbol;
#X floatatom 180 547 5 0 0 0 - - - 0;
#X floatatom 318 575 5 0 0 0 - - - 0;
#X obj 315 601 s fader1;
#X msg 176 246 fader\$1;
#X obj 1018 334 unpack i i;
#X obj 97 310 unpack i i;
#X obj 165 358 sel 127;
#X obj 100 628 text get stria;
#X obj 195 682 list split 1;
#N canvas 237 275 1491 594 datasender 1;
#X restore 547 607 pd datasender;
#X connect 0 0 2 0;
#X connect 2 0 20 0;
#X connect 2 1 3 0;
#X connect 3 0 18 0;
#X connect 3 1 19 0;
#X connect 5 0 13 0;
#X connect 6 0 12 0;
#X connect 8 0 15 0;
#X connect 9 0 10 0;
#X connect 11 0 9 0;
#X connect 12 0 5 0;
#X connect 12 1 14 0;
#X connect 13 1 11 0;
#X connect 14 0 13 1;
#X connect 16 0 17 0;
#X connect 18 0 5 0;
#X connect 20 0 22 0;
#X connect 20 1 21 0;
#X connect 22 1 23 0;
