#N canvas -858 73 631 1051 12;
#X declare -path zexy -lib zexy;
#X obj 346 483 writesf~ 2;
#X obj 254 414 inlet~;
#X obj 389 414 inlet~;
#X msg 280 343 open \$1;
#X msg 344 343 start;
#X msg 400 345 stop;
#X obj 280 317 makefilename %s.wav;
#N canvas -1277 253 591 450 datetime 0;
#X obj 98 36 inlet;
#X obj 68 139 makefilename %02d;
#X obj 198 139 makefilename %02d;
#X obj 349 139 makefilename %02d;
#X obj 479 139 makefilename %02d;
#X obj 49 263 makesymbol %s%s%s_%s%s%s;
#X obj 49 287 outlet;
#X obj 98 60 t b b;
#X obj 47 176 pack float symbol symbol float symbol symbol;
#X obj 328 102 time, f 16;
#X obj 47 102 date, f 16;
#X connect 0 0 7 0;
#X connect 1 0 8 1;
#X connect 2 0 8 2;
#X connect 3 0 8 4;
#X connect 4 0 8 5;
#X connect 5 0 6 0;
#X connect 7 0 10 0;
#X connect 7 1 9 0;
#X connect 8 0 5 0;
#X connect 9 0 8 3;
#X connect 9 1 3 0;
#X connect 9 2 4 0;
#X connect 10 0 8 0;
#X connect 10 1 1 0;
#X connect 10 2 2 0;
#X restore 280 255 pd datetime;
#X obj 239 134 tgl 19 0 empty empty empty 0 -10 0 12 #fcfcfc #000000 #000000 0 1;
#X obj 239 158 select 0 1;
#X obj 282 191 t b b;
#X obj 275 106 tgl 19 0 empty empty empty 0 -10 0 12 #fcfcfc #000000 #000000 0 1;
#X text 69 574 by pd_777 \; https://www.youtube.com/watch?v=YFAPwHndK8I;
#X obj 476 136 inlet start/stop;
#X obj 69 73 declare -path zexy -lib zexy;
#X connect 1 0 0 0;
#X connect 2 0 0 1;
#X connect 3 0 0 0;
#X connect 4 0 0 0;
#X connect 5 0 0 0;
#X connect 6 0 3 0;
#X connect 7 0 6 0;
#X connect 8 0 9 0;
#X connect 9 0 5 0;
#X connect 9 1 10 0;
#X connect 10 0 4 0;
#X connect 10 1 7 0;
#X connect 11 0 8 0;
#X connect 13 0 11 0;
#X coords 0 -1 1 1 200 30 1 100 100;
