#N canvas 2146 136 1479 398 12;
#X obj 94 6 inlet;
#X obj 94 32 list split 2;
#X obj 173 154 list split 1;
#X obj 166 301 sel 127;
#N canvas 0 314 1728 210 datasender 0;
#X text 89 436 beg;
#X text 157 434 dur;
#X text 226 435 amp;
#X text 301 436 Fc;
#X text 361 437 FmA;
#X text 427 438 ia1;
#X text 559 439 FmB;
#X text 625 440 ib1;
#X text 692 439 ib2;
#X text 762 441 att;
#X text 829 440 dec;
#X text 895 442 %skew;
#X text 974 443 dis;
#X text 59 416 P1;
#X text 123 416 P2;
#X text 191 413 P3;
#X text 255 410 P4;
#X text 326 411 P5;
#X text 386 412 P6;
#X text 456 413 P7;
#X text 654 413 P10;
#X text 588 411 P9;
#X text 719 411 P11;
#X text 789 415 P12;
#X text 856 418 P13;
#X text 935 417 P14;
#X text 1000 418 P15;
#X text 1117 417 P16;
#X text 1540 421 P22;
#X text 1608 425 P23;
#X text 1680 425 P24;
#X text 1746 423 P25;
#X text 1967 427 P28;
#X text 2046 425 P29;
#X text 2114 427 P30;
#X text 2190 431 P31;
#X text 1041 442 %rev;
#X text 1508 446 ch1;
#X text 1577 447 ch2;
#X text 1652 448 ch3;
#X text 1715 448 ch4;
#X text 1935 451 ampF;
#X text 2007 450 skewF;
#X text 2088 451 IAF;
#X text 2163 450 IBF;
#X obj 455 632 -;
#X obj 656 620 -;
#X obj 47 50 inlet;
#X obj 851 586 +;
#X obj 808 643 -;
#X obj 810 696 / 2;
#X obj 1120 572 loadbang;
#X msg 1120 617 1;
#X obj 788 468 s att\$1;
#X obj 854 469 s dec\$1;
#X obj 182 469 s dur\$1;
#X obj 250 467 s iamp\$1;
#X obj 319 468 s ifc\$1;
#X obj 384 468 s ifma\$1;
#X obj 452 468 s indxa1\$1;
#X obj 453 700 s idifa\$1;
#X obj 519 496 s indxa2\$1;
#X obj 588 514 s ifmb\$1;
#X obj 655 669 s idifb\$1;
#X obj 651 468 s indxb1\$1;
#X obj 716 497 s indxb2\$1;
#X obj 814 739 s ifactor\$1;
#X obj 933 469 s isk\$1;
#X obj 999 472 s idis\$1;
#X obj 1119 504 s rev\$1;
#X obj 1119 652 s imag\$1;
#X obj 1524 475 s ch1\$1;
#X obj 1593 476 s ch2\$1;
#X obj 1676 478 s ch3\$1;
#X obj 1741 477 s ch4\$1;
#X obj 48 290 unpack f f f f f f f f f f f f f f f f f f f f f f f f f f f f f f, f 306;
#X obj 765 565 t b f;
#X obj 762 369 f;
#X obj 1957 479 s ifn1\$1;
#X obj 2190 480 s ifn4\$1;
#X obj 2117 481 s ifn3\$1;
#X obj 2042 480 s ifn2\$1;
#X obj 655 545 t b f;
#X obj 641 590 f;
#X obj 517 552 t b f;
#X obj 503 597 f;
#X obj 47 117 - 1;
#X obj 47 159 text get scoredata;
#X text 119 114 compensate for array starting at 0;
#X connect 45 0 60 0;
#X connect 46 0 63 0;
#X connect 47 0 86 0;
#X connect 48 0 49 1;
#X connect 49 0 50 0;
#X connect 50 0 66 0;
#X connect 51 0 52 0;
#X connect 52 0 70 0;
#X connect 75 1 76 0;
#X connect 75 1 55 0;
#X connect 75 2 56 0;
#X connect 75 3 57 0;
#X connect 75 4 58 0;
#X connect 75 5 59 0;
#X connect 75 5 84 0;
#X connect 75 6 61 0;
#X connect 75 6 85 1;
#X connect 75 7 62 0;
#X connect 75 8 64 0;
#X connect 75 8 82 0;
#X connect 75 9 65 0;
#X connect 75 9 83 1;
#X connect 75 10 48 0;
#X connect 75 10 77 1;
#X connect 75 11 48 1;
#X connect 75 11 54 0;
#X connect 75 12 67 0;
#X connect 75 13 68 0;
#X connect 75 14 69 0;
#X connect 75 20 71 0;
#X connect 75 21 72 0;
#X connect 75 22 73 0;
#X connect 75 23 74 0;
#X connect 75 26 78 0;
#X connect 75 27 81 0;
#X connect 75 28 80 0;
#X connect 75 29 79 0;
#X connect 76 0 77 0;
#X connect 76 1 49 0;
#X connect 77 0 53 0;
#X connect 82 0 83 0;
#X connect 82 1 46 1;
#X connect 83 0 46 0;
#X connect 84 0 85 0;
#X connect 84 1 45 1;
#X connect 85 0 45 0;
#X connect 86 0 87 0;
#X connect 87 0 75 0;
#X restore 99 496 pd datasender;
#N canvas 346 38 1382 614 globalenvelope 1;
#X obj 213 123 * 1000;
#X obj 306 123 * 1000;
#X obj 443 121 * 1000;
#X msg 216 241 0 0 0.25 \$1 0.5 \$2 0.75 \$2 1 \$3;
#X obj 216 210 pack f f f;
#X obj 216 364 array set;
#X msg 276 320 symbol array\$1;
#X obj 538 320 loadbang;
#X obj 655 43 inlet;
#X obj 212 90 r att\$1;
#X obj 306 83 r ifactor\$1;
#X obj 140 687 s~ kndx\$1;
#X obj 443 83 r dec\$1;
#N canvas 221 176 1382 614 writerglobal 0;
#X obj 20 9 inlet;
#N canvas 2937 321 474 400 listiter2 0;
#X obj 57 23 inlet;
#X obj 57 48 t b l;
#X obj 59 106 until;
#X obj 60 164 list;
#X obj 103 290 route bang;
#X obj 103 315 t b b;
#X obj 40 388 outlet;
#X obj 112 409 outlet;
#X obj 60 189 list split 2;
#X connect 0 0 1 0;
#X connect 1 0 2 0;
#X connect 1 1 3 1;
#X connect 2 0 3 0;
#X connect 3 0 8 0;
#X connect 4 0 5 0;
#X connect 4 1 3 1;
#X connect 5 0 7 0;
#X connect 5 1 2 1;
#X connect 8 0 6 0;
#X connect 8 1 4 0;
#X restore 46 78 pd listiter2;
#X obj 46 131 unpack f f;
#X obj 112 186 +;
#X obj 111 241 f;
#X obj 55 278 pack f f;
#N canvas 2876 503 656 437 listcollect 0;
#X obj 163 13 inlet;
#X obj 58 309 outlet;
#X obj 60 13 inlet;
#X obj 55 188 list;
#X obj 60 46 t b b b;
#X obj 58 249 list;
#X obj 55 155 list prepend;
#X connect 0 0 6 0;
#X connect 2 0 4 0;
#X connect 3 0 5 1;
#X connect 3 0 6 1;
#X connect 4 0 6 0;
#X connect 4 1 6 1;
#X connect 4 2 5 0;
#X connect 5 0 1 0;
#X connect 6 0 3 0;
#X restore 21 325 pd listcollect;
#X obj 22 44 t b l 0;
#X obj 592 727 outlet;
#X obj 366 461 list split 4;
#X obj 257 421 list split 2;
#X obj 212 461 list append;
#X obj 397 583 unpack f f f f;
#X obj 294 653 -;
#X obj 294 618 f;
#X obj 336 618 f;
#X obj 294 729 /;
#X text 167 495 Loop through list;
#X text 336 652 delta y;
#X obj 397 653 -;
#X obj 397 618 f;
#X obj 452 618 f;
#X text 452 652 delta x;
#X text 318 385 first iteration;
#X text 326 728 steigung;
#X obj 273 820 *;
#X obj 273 855 +;
#X obj 190 929 pack f f;
#N canvas 266 304 1018 643 uzi 0;
#X obj 97 53 inlet;
#X obj 97 159 f \$1;
#X obj 97 249 sel 0;
#X obj 124 269 until;
#X obj 167 52 inlet;
#X obj 124 309 f;
#X obj 164 419 sel;
#X obj 255 419 outlet;
#X text 254 438 counter (starting at offset);
#X obj 164 439 outlet;
#X text 163 456 done;
#X obj 143 499 outlet;
#X text 142 516 bang;
#X obj 205 117 route offset;
#X obj 139 199 f \$2;
#X text 259 224 \$1 = n of bangs;
#X text 259 244 \$2 = offset;
#X obj 164 379 + 1;
#X obj 139 219 t f f;
#X obj 166 269 +;
#X text 259 194 except that the default offset is 0;
#X obj 124 329 t f b f;
#X obj 164 399 t f f;
#X obj 97 179 t f f b;
#X obj 117 119 t b f;
#X obj 97 89 route bang float;
#X text 259 174 vanilla version of [cyclone/uzi];
#X connect 0 0 25 0;
#X connect 1 0 23 0;
#X connect 2 1 3 0;
#X connect 3 0 5 0;
#X connect 4 0 1 1;
#X connect 5 0 21 0;
#X connect 6 0 9 0;
#X connect 13 0 14 1;
#X connect 14 0 18 0;
#X connect 17 0 22 0;
#X connect 18 0 5 1;
#X connect 18 1 19 1;
#X connect 19 0 6 1;
#X connect 21 0 17 0;
#X connect 21 1 11 0;
#X connect 21 2 7 0;
#X connect 22 0 6 0;
#X connect 22 1 5 1;
#X connect 23 0 2 0;
#X connect 23 1 19 0;
#X connect 23 2 14 0;
#X connect 24 0 1 0;
#X connect 24 1 1 1;
#X connect 25 0 1 0;
#X connect 25 1 24 0;
#X connect 25 2 13 0;
#X restore 159 688 pd uzi;
#X obj 191 752 t f f;
#X obj 190 890 +;
#X obj 159 618 t f f;
#X obj 159 583 f;
#X obj 212 820 +;
#X floatatom 212 855 5 0 0 0 - - - 0;
#X obj 159 653 t f 0;
#X obj 240 787 0;
#X obj 294 555 t b b b b;
#X obj 257 386 t l l b;
#X obj 319 820 f;
#X obj 366 496 t b b l;
#X obj 188 1086 tabwrite array\$1;
#X msg 246 981 \$2 \$1;
#X obj 175 1004 unpack f f;
#X obj 590 499 array size array\$1;
#X obj 600 377 list length;
#X obj 308 332 t l l l;
#X obj 554 431 list split;
#X obj 613 409 - 1;
#X msg 245 169 1 0 0.543 2094 0.367 5246 0.2037 12620 0.0845 13913 0 16384;
#X msg 370 71 0 0 0.25 300 0.5 1941.9 0.75 1941.9 1 3873.7;
#X msg 292 208 0 0 0.25 300 0.5 2241.9 0.75 4183.8 1 8057.5;
#X connect 0 0 7 0;
#X connect 1 0 2 0;
#X connect 2 0 5 0;
#X connect 2 1 3 0;
#X connect 3 0 4 0;
#X connect 4 0 3 1;
#X connect 4 0 5 1;
#X connect 5 0 6 1;
#X connect 6 0 46 0;
#X connect 7 0 6 0;
#X connect 7 1 1 0;
#X connect 7 2 3 1;
#X connect 9 0 40 0;
#X connect 10 1 11 1;
#X connect 10 1 9 0;
#X connect 11 0 10 0;
#X connect 12 0 15 1;
#X connect 12 0 26 1;
#X connect 12 1 21 1;
#X connect 12 2 14 1;
#X connect 12 3 20 1;
#X connect 13 0 16 0;
#X connect 14 0 13 0;
#X connect 15 0 13 1;
#X connect 16 0 25 1;
#X connect 19 0 16 1;
#X connect 19 0 32 1;
#X connect 20 0 19 0;
#X connect 21 0 19 1;
#X connect 25 0 26 0;
#X connect 26 0 27 1;
#X connect 27 0 42 0;
#X connect 28 2 29 0;
#X connect 29 0 30 0;
#X connect 29 1 25 0;
#X connect 30 0 27 0;
#X connect 31 0 33 0;
#X connect 31 1 35 0;
#X connect 32 0 31 0;
#X connect 33 0 34 0;
#X connect 34 0 33 1;
#X connect 34 0 30 1;
#X connect 35 0 28 0;
#X connect 35 1 28 1;
#X connect 36 0 33 1;
#X connect 36 0 30 1;
#X connect 37 0 32 0;
#X connect 37 1 14 0;
#X connect 37 2 20 0;
#X connect 37 3 15 0;
#X connect 37 3 21 0;
#X connect 38 0 10 0;
#X connect 38 1 9 0;
#X connect 38 2 36 0;
#X connect 40 0 11 0;
#X connect 40 1 37 0;
#X connect 40 2 12 0;
#X connect 42 0 43 0;
#X connect 43 0 41 0;
#X connect 43 1 41 1;
#X connect 45 0 48 0;
#X connect 46 0 38 0;
#X connect 46 1 47 0;
#X connect 46 2 45 0;
#X connect 47 1 44 0;
#X connect 47 1 8 0;
#X connect 48 0 47 1;
#X connect 49 0 46 0;
#X connect 50 0 7 0;
#X connect 51 0 46 0;
#X restore 642 366 pd writerglobal;
#X obj 642 320 table array\$1;
#X obj 516 364 f \$1;
#X obj 223 517 array get array\$1 0 1;
#X floatatom 620 472 5 0 0 0 - - - 0;
#X obj 620 426 cyclone/scale 0 127 0 1;
#X obj 140 641 vline~;
#X obj 196 585 list append 10;
#X connect 0 0 4 0;
#X connect 1 0 4 1;
#X connect 2 0 4 2;
#X connect 3 0 5 0;
#X connect 3 0 13 0;
#X connect 4 0 3 0;
#X connect 6 0 5 2;
#X connect 6 0 16 2;
#X connect 7 0 15 0;
#X connect 8 0 18 0;
#X connect 9 0 0 0;
#X connect 10 0 1 0;
#X connect 12 0 2 0;
#X connect 13 0 18 4;
#X connect 15 0 6 0;
#X connect 16 0 20 0;
#X connect 18 0 16 0;
#X connect 18 0 17 0;
#X connect 19 0 11 0;
#X connect 20 0 19 0;
#X restore 866 673 pd globalenvelope;
#X obj 163 1018 outlet~;
#X obj 230 1018 outlet~;
#X obj 308 1018 outlet~;
#X obj 374 1018 outlet~;
#X obj 626 1030 outlet~;
#N canvas 1055 269 673 516 chanelvolumes 0;
#X obj 62 31 inlet~;
#X obj 68 314 *~;
#X obj 68 345 outlet~;
#X obj 65 157 *~;
#X obj 194 314 *~;
#X obj 194 345 outlet~;
#X obj 315 314 *~;
#X obj 315 345 outlet~;
#X obj 429 314 *~;
#X obj 429 345 outlet~;
#X obj 177 34 r idis\$1;
#X obj 109 160 r ch1\$1;
#X obj 230 167 r ch2\$1;
#X obj 340 169 r ch3\$1;
#X obj 474 154 r ch4\$1;
#X floatatom 253 201 5 0 0 0 - - - 0;
#X obj 100 288 vline~;
#X obj 226 288 vline~;
#X obj 347 288 vline~;
#X obj 461 288 vline~;
#X obj 100 257 list append 500;
#X obj 226 257 list append 500;
#X obj 347 257 list append 500;
#X obj 461 257 list append 500;
#X connect 0 0 3 0;
#X connect 1 0 2 0;
#X connect 3 0 1 0;
#X connect 3 0 4 0;
#X connect 3 0 6 0;
#X connect 3 0 8 0;
#X connect 4 0 5 0;
#X connect 6 0 7 0;
#X connect 8 0 9 0;
#X connect 10 0 3 1;
#X connect 11 0 20 0;
#X connect 12 0 15 0;
#X connect 12 0 21 0;
#X connect 13 0 22 0;
#X connect 14 0 23 0;
#X connect 16 0 1 1;
#X connect 17 0 4 1;
#X connect 18 0 6 1;
#X connect 19 0 8 1;
#X connect 20 0 16 0;
#X connect 21 0 17 0;
#X connect 22 0 18 0;
#X connect 23 0 19 0;
#X restore 163 982 pd chanelvolumes;
#X obj 625 980 *~;
#X obj 77 707 *~ 0.02;
#N canvas 693 237 972 577 asig 0;
#X obj 94 20 inlet~;
#X obj 170 20 inlet~;
#X obj 240 10 inlet~;
#X obj 315 20 inlet~;
#X obj 100 415 outlet~;
#X obj 100 389 *~;
#X obj 167 337 osc~;
#X obj 165 291 +~;
#X obj 279 250 +~;
#N canvas 0 39 1728 630 amoda 0;
#X obj 103 38 inlet~;
#X obj 357 38 inlet~;
#X obj 105 323 outlet~;
#X obj 104 241 *~;
#X obj 193 215 osc~;
#X obj 180 81 r ifma\$1;
#X obj 424 83 r imag\$1;
#X obj 152 152 *;
#X obj 152 178 *;
#X obj 392 152 *;
#X obj 104 215 +~ 0;
#X obj 357 178 *~ 0;
#X obj 269 75 r indxa1\$1;
#X connect 0 0 10 0;
#X connect 1 0 11 0;
#X connect 3 0 2 0;
#X connect 4 0 3 1;
#X connect 5 0 7 0;
#X connect 5 0 9 0;
#X connect 6 0 8 1;
#X connect 6 0 9 1;
#X connect 7 0 8 0;
#X connect 8 0 10 1;
#X connect 9 0 11 1;
#X connect 10 0 3 0;
#X connect 11 0 4 0;
#X connect 12 0 7 1;
#X restore 365 154 pd amoda;
#N canvas 915 300 813 306 amodb 0;
#X obj 103 38 inlet~;
#X obj 357 38 inlet~;
#X obj 105 323 outlet~;
#X obj 104 241 *~;
#X obj 193 215 osc~;
#X obj 120 113 r ifma\$1;
#X obj 290 70 r imag\$1;
#X obj 460 69 r ifmb\$1;
#X obj 152 152 *;
#X obj 152 178 *;
#X obj 392 152 *;
#X obj 357 178 *~ 0;
#X obj 104 215 +~ 0;
#X obj 197 115 r indxb1\$1;
#X connect 0 0 12 0;
#X connect 1 0 11 0;
#X connect 3 0 2 0;
#X connect 4 0 3 1;
#X connect 5 0 8 0;
#X connect 6 0 9 1;
#X connect 6 0 10 1;
#X connect 7 0 10 0;
#X connect 8 0 9 0;
#X connect 9 0 12 1;
#X connect 10 0 11 1;
#X connect 11 0 4 0;
#X connect 12 0 3 0;
#X connect 13 0 8 1;
#X restore 477 144 pd amodb;
#X obj 189 202 r ifc\$1;
#X obj 243 170 r imag\$1;
#X obj 188 228 * 1;
#X obj 165 257 *~ 0;
#X connect 0 0 5 0;
#X connect 1 0 14 0;
#X connect 1 0 9 1;
#X connect 1 0 10 1;
#X connect 2 0 9 0;
#X connect 3 0 10 0;
#X connect 5 0 4 0;
#X connect 6 0 5 1;
#X connect 7 0 6 0;
#X connect 8 0 7 1;
#X connect 9 0 8 0;
#X connect 10 0 8 1;
#X connect 11 0 13 0;
#X connect 12 0 13 1;
#X connect 13 0 14 1;
#X connect 14 0 7 0;
#X restore 78 642 pd asig;
#N canvas 70 53 1108 578 env 0;
#X msg 245 254 set F\$1;
#X obj 123 440 outlet~;
#X obj 248 205 r ifn1\$1;
#X obj 413 240 r iamp\$1;
#X obj 43 132 r~ kndx\$1;
#X obj 106 174 *~ 16385;
#X obj 123 414 *~ 0;
#X text 225 143 change to 16384 for arrays starting at 0;
#X obj 122 326 tabread4~ F2;
#X connect 0 0 8 0;
#X connect 2 0 0 0;
#X connect 3 0 6 1;
#X connect 4 0 5 0;
#X connect 5 0 8 0;
#X connect 6 0 1 0;
#X connect 8 0 6 0;
#X restore 87 581 pd env;
#N canvas 0 38 1728 858 skew 0;
#X msg 191 249 set F\$1;
#X obj 122 550 outlet~;
#X obj 43 132 r~ kndx\$1;
#X obj 106 174 *~ 16385;
#X obj 241 125 r ifn2\$1;
#X obj 349 119 r isk\$1;
#X obj 123 414 *~ 0;
#X obj 125 489 +~ 1;
#X obj 122 326 tabread4~ F6;
#X connect 0 0 8 0;
#X connect 2 0 3 0;
#X connect 3 0 8 0;
#X connect 4 0 0 0;
#X connect 5 0 6 1;
#X connect 6 0 7 0;
#X connect 7 0 1 0;
#X connect 8 0 6 0;
#X restore 143 581 pd skew;
#N canvas 1072 87 656 442 fda 0;
#X msg 245 254 set F\$1;
#X obj 122 606 outlet~;
#X obj 106 145 r~ kndx\$1;
#X obj 106 193 *~ 16385;
#X obj 275 65 r ifn3\$1;
#X obj 396 247 r ifma\$1;
#X obj 420 293 r idifa\$1;
#X obj 496 331 r imag\$1;
#X obj 123 414 *~ 0;
#X obj 122 469 *~ 0;
#X obj 122 523 *~ 0;
#X obj 124 297 tabread4~ F2;
#X connect 0 0 11 0;
#X connect 2 0 3 0;
#X connect 3 0 11 0;
#X connect 4 0 0 0;
#X connect 5 0 8 1;
#X connect 6 0 9 1;
#X connect 7 0 10 1;
#X connect 8 0 9 0;
#X connect 9 0 10 0;
#X connect 10 0 1 0;
#X connect 11 0 8 0;
#X restore 206 581 pd fda;
#N canvas 1072 87 656 420 fdb 0;
#X msg 245 254 set F\$1;
#X obj 122 549 outlet~;
#X obj 43 132 r~ kndx\$1;
#X obj 106 174 *~ 16385;
#X obj 261 201 r ifn4\$1;
#X obj 501 308 r ifmb\$1;
#X obj 370 254 r idifb\$1;
#X obj 448 185 r imag\$1;
#X obj 123 414 *~ 0;
#X obj 122 469 *~ 0;
#X obj 122 523 *~ 0;
#X obj 124 297 tabread4~ F4;
#X connect 0 0 11 0;
#X connect 2 0 3 0;
#X connect 3 0 11 0;
#X connect 4 0 0 0;
#X connect 5 0 8 1;
#X connect 6 0 9 1;
#X connect 7 0 10 1;
#X connect 8 0 9 0;
#X connect 9 0 10 0;
#X connect 10 0 1 0;
#X connect 11 0 8 0;
#X restore 260 581 pd fdb;
#X obj 894 393 t b;
#X msg 894 442 0;
#X msg 815 541 1;
#X obj 807 631 gate;
#X obj 787 390 t f b;
#X obj 356 784 t b;
#X msg 356 808 1;
#X obj 788 354 cyclone/split 0 127;
#X obj 882 287 unpack f f;
#X obj 885 597 cyclone/scale 0 16383 0 127;
#X obj 197 396 gate;
#X obj 234 300 sel off;
#X msg 233 336 0;
#X msg 166 329 1;
#X obj 314 299 r alloff;
#X obj 173 230 route float symbol;
#X obj 644 942 r rev\$1;
#X obj 98 253 unpack f f;
#X text 1096 593 scaling the input to the relevant range of the fader;
#X text 993 672 read through kndx and send the value to env skew fda and fdb, f 31;
#X text 315 583 read from the data table;
#X text 149 644 fm synth;
#X text 548 995 rev output;
#X text 310 983 dry outputs;
#X obj 356 740 cyclone/split 0 120;
#X obj 486 779 cyclone/scale 120 127 1 0;
#X obj 80 831 *~;
#X obj 356 697 cyclone/clip 0 127;
#X msg 393 807 0;
#X text 309 201 set the fader to be recieved in this instance of clone;
#X text 458 832 fadeout in the upper regions of the fader;
#X text 204 493 send the score data for the specific event to the env skew fda fdb etc.;
#N canvas 666 334 1051 309 faderreceiver 0;
#X obj 44 30 receive fader1;
#X obj 161 32 receive fader2;
#X obj 276 33 receive fader3;
#X obj 397 34 receive fader4;
#X obj 504 34 receive fader5;
#X obj 625 35 receive fader6;
#X obj 740 36 receive fader7;
#X obj 861 37 receive fader8;
#X obj 41 155 receive fader9;
#X obj 162 156 receive fader10;
#X obj 277 157 receive fader11;
#X obj 398 158 receive fader12;
#X obj 505 158 receive fader13;
#X obj 626 159 receive fader14;
#X obj 741 160 receive fader15;
#X obj 862 161 receive fader16;
#X obj 26 204 inlet;
#X obj 60 268 outlet;
#X obj 53 245 cyclone/switch 16, f 125;
#X connect 0 0 18 1;
#X connect 1 0 18 2;
#X connect 2 0 18 3;
#X connect 3 0 18 4;
#X connect 4 0 18 5;
#X connect 5 0 18 6;
#X connect 6 0 18 7;
#X connect 7 0 18 8;
#X connect 8 0 18 9;
#X connect 9 0 18 10;
#X connect 10 0 18 11;
#X connect 11 0 18 12;
#X connect 12 0 18 13;
#X connect 13 0 18 14;
#X connect 14 0 18 15;
#X connect 15 0 18 16;
#X connect 16 0 18 0;
#X connect 18 0 17 0;
#X restore 173 204 pd faderreceiver;
#X text 145 708 scaling of outputsignals;
#X text 122 904 send to reverb;
#X obj 269 408 list prepend \$1;
#X obj 268 434 s aktive;
#X text 394 300 note off;
#X text 107 301 note on;
#X obj 61 1017 s~ \$1audio;
#X msg 356 853 \$1 200;
#X obj 356 885 vline~;
#X connect 0 0 1 0;
#X connect 1 0 36 0;
#X connect 1 1 2 0;
#X connect 2 0 51 0;
#X connect 2 1 27 0;
#X connect 3 0 32 0;
#X connect 11 0 6 0;
#X connect 11 1 7 0;
#X connect 11 2 8 0;
#X connect 11 3 9 0;
#X connect 12 0 10 0;
#X connect 13 0 45 0;
#X connect 14 0 13 0;
#X connect 15 0 14 0;
#X connect 16 0 14 1;
#X connect 17 0 14 2;
#X connect 18 0 14 3;
#X connect 19 0 20 0;
#X connect 20 0 22 0;
#X connect 20 0 28 0;
#X connect 20 0 59 0;
#X connect 21 0 22 0;
#X connect 22 0 5 0;
#X connect 22 0 46 0;
#X connect 23 0 28 0;
#X connect 23 1 21 0;
#X connect 24 0 25 0;
#X connect 25 0 59 0;
#X connect 26 0 23 0;
#X connect 26 1 19 0;
#X connect 27 0 28 1;
#X connect 27 0 26 1;
#X connect 27 1 28 2;
#X connect 27 1 26 2;
#X connect 28 0 22 1;
#X connect 29 0 26 0;
#X connect 30 0 31 0;
#X connect 30 0 47 0;
#X connect 31 0 29 0;
#X connect 31 0 54 0;
#X connect 32 0 29 0;
#X connect 32 0 54 0;
#X connect 33 0 31 0;
#X connect 34 0 29 1;
#X connect 34 1 30 0;
#X connect 35 0 12 1;
#X connect 36 0 4 0;
#X connect 36 1 3 0;
#X connect 43 0 24 0;
#X connect 43 1 44 0;
#X connect 44 0 59 0;
#X connect 45 0 11 0;
#X connect 45 0 58 0;
#X connect 45 0 12 0;
#X connect 46 0 43 0;
#X connect 47 0 59 0;
#X connect 51 0 34 0;
#X connect 54 0 55 0;
#X connect 59 0 60 0;
#X connect 60 0 45 1;
