#N canvas 29 201 1681 585 12;
#X obj 116 387 outlet;
#X obj 201 47 loadbang;
#X msg 201 110 iconfader_1;
#X obj 201 164 list prepend 0;
#X obj 21 241 route 0 1 2 3 4 5 6 7, f 140;
#X obj 21 41 r returnfb1;
#X msg 367 109 iconfader_2;
#X msg 530 107 iconfader_3;
#X msg 694 105 iconfader_4;
#X msg 857 105 iconfader_5;
#X msg 1026 103 iconfader_6;
#X msg 1189 102 iconfader_7;
#X msg 1351 100 iconfader_8;
#X obj 56 389 outlet;
#X msg 184 353 set \$1;
#X obj 295 389 outlet;
#X obj 235 391 outlet;
#X msg 363 355 set \$1;
#X obj 474 390 outlet;
#X obj 414 392 outlet;
#X msg 542 356 set \$1;
#X obj 657 389 outlet;
#X obj 597 391 outlet;
#X msg 725 355 set \$1;
#X obj 836 389 outlet;
#X obj 776 391 outlet;
#X msg 904 355 set \$1;
#X obj 1016 387 outlet;
#X obj 956 389 outlet;
#X msg 1084 353 set \$1;
#X obj 1190 383 outlet;
#X obj 1130 385 outlet;
#X msg 1258 349 set \$1;
#X obj 1370 381 outlet;
#X obj 1310 383 outlet;
#X msg 1438 347 set \$1;
#X obj 367 163 list prepend 1;
#X obj 530 161 list prepend 2;
#X obj 694 159 list prepend 3;
#X obj 857 159 list prepend 4;
#X obj 1026 157 list prepend 5;
#X obj 1189 156 list prepend 6;
#X obj 1351 154 list prepend 7;
#X obj 201 137 receiveset iconfader_1;
#X obj 367 136 receiveset iconfader_2;
#X obj 530 134 receiveset iconfader_3;
#X obj 694 132 receiveset iconfader_4;
#X obj 857 132 receiveset iconfader_5;
#X obj 1026 130 receiveset iconfader_6;
#X obj 1189 129 receiveset iconfader_7;
#X obj 1351 127 receiveset iconfader_8;
#X msg 143 301 1 \$1;
#X obj 72 264 loadbang;
#X obj 117 325 fader 1;
#X obj 296 327 fader 2;
#X msg 342 298 2 \$1;
#X msg 511 296 3 \$1;
#X msg 669 299 4 \$1;
#X msg 880 292 5 \$1;
#X msg 1038 295 6 \$1;
#X msg 1238 289 7 \$1;
#X msg 1396 292 8 \$1;
#X obj 475 328 fader 3;
#X obj 658 327 fader 4;
#X obj 837 327 fader 5;
#X obj 1017 325 fader 6;
#X obj 1191 321 fader 7;
#X obj 1371 319 fader 8;
#X obj 137 273 f \$1;
#X text 1463 318 create the events specific to the fader;
#X connect 1 0 2 0;
#X connect 1 0 6 0;
#X connect 1 0 7 0;
#X connect 1 0 8 0;
#X connect 1 0 9 0;
#X connect 1 0 10 0;
#X connect 1 0 11 0;
#X connect 1 0 12 0;
#X connect 2 0 43 0;
#X connect 3 0 4 0;
#X connect 4 0 53 0;
#X connect 4 1 54 0;
#X connect 4 2 62 0;
#X connect 4 3 63 0;
#X connect 4 4 64 0;
#X connect 4 5 65 0;
#X connect 4 6 66 0;
#X connect 4 7 67 0;
#X connect 5 0 4 0;
#X connect 6 0 44 0;
#X connect 7 0 45 0;
#X connect 8 0 46 0;
#X connect 9 0 47 0;
#X connect 10 0 48 0;
#X connect 11 0 49 0;
#X connect 12 0 50 0;
#X connect 14 0 13 0;
#X connect 17 0 16 0;
#X connect 20 0 19 0;
#X connect 23 0 22 0;
#X connect 26 0 25 0;
#X connect 29 0 28 0;
#X connect 32 0 31 0;
#X connect 35 0 34 0;
#X connect 36 0 4 0;
#X connect 37 0 4 0;
#X connect 38 0 4 0;
#X connect 39 0 4 0;
#X connect 40 0 4 0;
#X connect 41 0 4 0;
#X connect 42 0 4 0;
#X connect 43 0 3 0;
#X connect 44 0 36 0;
#X connect 45 0 37 0;
#X connect 46 0 38 0;
#X connect 47 0 39 0;
#X connect 48 0 40 0;
#X connect 49 0 41 0;
#X connect 50 0 42 0;
#X connect 51 0 53 1;
#X connect 52 0 68 0;
#X connect 53 0 0 0;
#X connect 53 1 14 0;
#X connect 54 0 15 0;
#X connect 54 1 17 0;
#X connect 55 0 54 1;
#X connect 56 0 62 1;
#X connect 57 0 63 1;
#X connect 58 0 64 1;
#X connect 59 0 65 1;
#X connect 60 0 66 1;
#X connect 61 0 67 1;
#X connect 62 0 18 0;
#X connect 62 1 20 0;
#X connect 63 0 21 0;
#X connect 63 1 23 0;
#X connect 64 0 24 0;
#X connect 64 1 26 0;
#X connect 65 0 27 0;
#X connect 65 1 29 0;
#X connect 66 0 30 0;
#X connect 66 1 32 0;
#X connect 67 0 33 0;
#X connect 67 1 35 0;
#X connect 68 0 51 0;
#X connect 68 0 55 0;
#X connect 68 0 56 0;
#X connect 68 0 57 0;
