#N canvas 197 100 1531 801 12;
#X obj 81 17 inlet;
#X obj 84 147 sel 16383;
#X obj 235 17 loadbang;
#X obj 176 709 outlet;
#X obj 495 709 outlet;
#X obj 183 110 sel 0;
#X obj 183 182 t b b;
#X msg 237 227 0;
#X obj 184 311 gate;
#X obj 89 311 gate;
#X msg 212 147 1;
#X obj 340 272 pipe 100;
#X msg 84 217 0;
#X obj 102 709 s;
#X obj 275 342 cyclone/counter;
#X msg 131 227 1;
#X obj 84 182 t b b b;
#X msg 265 110 0;
#X obj 262 447 text get fader1_1;
#X obj 120 637 f \$1;
#X obj 83 75 t f f f;
#X obj 314 548 Metafader \$1;
#X msg 432 400 symbol fader\$1_\$2;
#X obj 269 708 s toengine;
#X text 365 710 Noteoffs;
#X obj 268 610 list;
#N canvas 324 362 371 268 listiter 0;
#X obj 59 109 until;
#X obj 59 184 list store;
#X obj 57 48 t b b l;
#X obj 59 134 f;
#X obj 97 134 + 1;
#X msg 116 109 0, f 2;
#X msg 59 159 get \$1 1;
#X obj 57 23 inlet;
#X obj 58 219 outlet;
#X connect 0 0 3 0;
#X connect 1 0 8 0;
#X connect 1 1 0 1;
#X connect 2 0 0 0;
#X connect 2 1 5 0;
#X connect 2 2 1 1;
#X connect 3 0 4 0;
#X connect 3 0 6 0;
#X connect 4 0 3 1;
#X connect 5 0 3 1;
#X connect 6 0 1 0;
#X connect 7 0 2 0;
#X restore 268 653 pd listiter;
#X obj 268 681 list append 0;
#X msg 120 666 symbol fader\$1;
#X obj 433 274 inlet;
#X msg 50 456 symbol off;
#X text 134 454 clear the instances used by a specific fader when the event is over, f 13;
#X text 14 657 pass on the fadervalues direvtly into the engine, f 11;
#X text 434 546 Scale multiple events onto one fader and pass them on to the engine as note on messages, f 68;
#X text 173 745 events that are assigned to the fader;
#X text 566 704 Feedbackloop for motorized faders;
#X text 493 276 set fader to be read;
#X connect 0 0 20 0;
#X connect 1 0 16 0;
#X connect 2 0 7 0;
#X connect 2 0 17 0;
#X connect 2 0 19 0;
#X connect 5 0 6 0;
#X connect 5 0 10 0;
#X connect 6 0 7 0;
#X connect 6 1 8 1;
#X connect 7 0 8 0;
#X connect 8 0 14 0;
#X connect 9 0 13 0;
#X connect 10 0 9 0;
#X connect 11 0 14 3;
#X connect 12 0 9 0;
#X connect 14 0 18 0;
#X connect 15 0 8 0;
#X connect 16 0 30 0;
#X connect 16 0 25 0;
#X connect 16 1 12 0;
#X connect 16 2 15 0;
#X connect 17 0 9 0;
#X connect 17 0 11 0;
#X connect 18 0 3 0;
#X connect 18 0 21 0;
#X connect 18 0 25 1;
#X connect 19 0 28 0;
#X connect 20 0 1 0;
#X connect 20 0 4 0;
#X connect 20 1 9 1;
#X connect 20 2 5 0;
#X connect 22 0 18 3;
#X connect 25 0 26 0;
#X connect 26 0 27 0;
#X connect 27 0 23 0;
#X connect 28 0 13 1;
#X connect 29 0 22 0;
#X connect 30 0 13 0;
