#N canvas 187 195 1513 799 12;
#X obj 116 387 outlet;
#X obj 201 47 loadbang;
#X obj 56 389 outlet;
#X msg 184 353 set \$1;
#X obj 295 389 outlet;
#X obj 235 391 outlet;
#X msg 363 355 set \$1;
#X obj 474 390 outlet;
#X obj 414 392 outlet;
#X msg 542 356 set \$1;
#X obj 657 389 outlet;
#X obj 597 391 outlet;
#X msg 725 355 set \$1;
#X obj 836 389 outlet;
#X obj 776 391 outlet;
#X msg 904 355 set \$1;
#X obj 1016 387 outlet;
#X obj 956 389 outlet;
#X msg 1084 353 set \$1;
#X obj 1190 383 outlet;
#X obj 1130 385 outlet;
#X msg 1258 349 set \$1;
#X obj 1370 381 outlet;
#X obj 1310 383 outlet;
#X msg 1438 347 set \$1;
#X msg 201 110 iconfader2_1;
#X msg 320 110 iconfader2_2;
#X msg 429 110 iconfader2_3;
#X msg 543 110 iconfader2_4;
#X msg 654 110 iconfader2_5;
#X msg 773 110 iconfader2_6;
#X msg 882 110 iconfader2_7;
#X msg 996 110 iconfader2_8;
#X obj 21 41 r returnfb2;
#X obj 21 241 route 9 10 11 12 13 14 15 16, f 140;
#X obj 201 164 list prepend 9;
#X obj 320 164 list prepend 10;
#X obj 429 164 list prepend 11;
#X obj 543 164 list prepend 12;
#X obj 654 164 list prepend 13;
#X obj 773 164 list prepend 14;
#X obj 882 164 list prepend 15;
#X obj 996 164 list prepend 16;
#X obj 201 137 receiveset iconfader2_1;
#X obj 320 137 receiveset iconfader2_2;
#X obj 429 137 receiveset iconfader2_3;
#X obj 543 137 receiveset iconfader2_4;
#X obj 654 137 receiveset iconfader2_5;
#X obj 773 137 receiveset iconfader2_6;
#X obj 882 137 receiveset iconfader2_7;
#X obj 996 137 receiveset iconfader2_8;
#X obj 38 259 loadbang;
#X obj 143 277 f \$1;
#X obj 117 325 fader 9;
#X obj 296 327 fader 10;
#X obj 475 328 fader 11;
#X obj 658 327 fader 12;
#X obj 837 327 fader 13;
#X obj 1017 325 fader 14;
#X obj 1191 321 fader 15;
#X obj 1371 319 fader 16;
#X msg 143 301 1 \$1;
#X msg 342 298 2 \$1;
#X msg 511 296 3 \$1;
#X msg 669 299 4 \$1;
#X msg 880 292 5 \$1;
#X msg 1038 295 6 \$1;
#X msg 1238 289 7 \$1;
#X msg 1396 292 8 \$1;
#X connect 1 0 25 0;
#X connect 1 0 26 0;
#X connect 1 0 27 0;
#X connect 1 0 28 0;
#X connect 1 0 29 0;
#X connect 1 0 30 0;
#X connect 1 0 31 0;
#X connect 1 0 32 0;
#X connect 3 0 2 0;
#X connect 6 0 5 0;
#X connect 9 0 8 0;
#X connect 12 0 11 0;
#X connect 15 0 14 0;
#X connect 18 0 17 0;
#X connect 21 0 20 0;
#X connect 24 0 23 0;
#X connect 25 0 43 0;
#X connect 26 0 44 0;
#X connect 27 0 45 0;
#X connect 28 0 46 0;
#X connect 29 0 47 0;
#X connect 30 0 48 0;
#X connect 31 0 49 0;
#X connect 32 0 50 0;
#X connect 33 0 34 0;
#X connect 34 0 53 0;
#X connect 34 1 54 0;
#X connect 34 2 55 0;
#X connect 34 3 56 0;
#X connect 34 4 57 0;
#X connect 34 5 58 0;
#X connect 34 6 59 0;
#X connect 34 7 60 0;
#X connect 35 0 34 0;
#X connect 36 0 34 0;
#X connect 37 0 34 0;
#X connect 38 0 34 0;
#X connect 39 0 34 0;
#X connect 40 0 34 0;
#X connect 41 0 34 0;
#X connect 42 0 34 0;
#X connect 43 0 35 0;
#X connect 44 0 36 0;
#X connect 45 0 37 0;
#X connect 46 0 38 0;
#X connect 47 0 39 0;
#X connect 48 0 40 0;
#X connect 49 0 41 0;
#X connect 50 0 42 0;
#X connect 51 0 52 0;
#X connect 52 0 61 0;
#X connect 52 0 62 0;
#X connect 52 0 63 0;
#X connect 52 0 64 0;
#X connect 53 0 0 0;
#X connect 53 1 3 0;
#X connect 54 0 4 0;
#X connect 54 1 6 0;
#X connect 55 0 7 0;
#X connect 55 1 9 0;
#X connect 56 0 10 0;
#X connect 56 1 12 0;
#X connect 57 0 13 0;
#X connect 57 1 15 0;
#X connect 58 0 16 0;
#X connect 58 1 18 0;
#X connect 59 0 19 0;
#X connect 59 1 21 0;
#X connect 60 0 22 0;
#X connect 60 1 24 0;
#X connect 61 0 53 1;
#X connect 62 0 54 1;
#X connect 63 0 55 1;
#X connect 64 0 56 1;
#X connect 65 0 57 1;
#X connect 66 0 58 1;
#X connect 67 0 59 1;
#X connect 68 0 60 1;
