#N canvas 0 165 1278 505 12;
#X obj 100 -100 table F2;
#X obj 100 -73 table F3;
#X obj 100 -46 table F4;
#X obj 100 -19 table F5;
#X obj 100 8 table F6;
#X obj 100 35 table F7;
#N canvas 430 56 644 278 writerF1 0;
#X obj 52 406 s list1;
#X obj 85 125 f 30;
#X obj 85 163 until;
#X obj 115 203 + 1;
#X obj 58 89 t b b;
#X obj 39 125 f 1;
#X obj 85 201 f 1;
#X obj 170 285 list;
#X obj 85 261 expr 1 / $f1;
#X obj 85 325 list prepend;
#X msg 64 285 list;
#X obj 52 368 list store;
#X text 128 88 F1;
#X msg 256 241 \; F1 sinesum 16385 1;
#X msg 256 293 \; F1 normalize;
#X obj 57 14 loadbang;
#X obj 57 53 t b b;
#X connect 1 0 2 0;
#X connect 2 0 6 0;
#X connect 3 0 6 1;
#X connect 4 0 5 0;
#X connect 4 0 10 0;
#X connect 4 0 11 0;
#X connect 4 1 1 0;
#X connect 5 0 6 1;
#X connect 6 0 3 0;
#X connect 6 0 8 0;
#X connect 7 0 9 1;
#X connect 8 0 9 0;
#X connect 9 0 7 0;
#X connect 9 0 11 1;
#X connect 10 0 7 0;
#X connect 11 0 0 0;
#X connect 13 0 14 0;
#X connect 15 0 16 0;
#X connect 16 0 4 0;
#X connect 16 1 13 0;
#X restore 7 -127 pd writerF1;
#X obj 100 -127 table F1;
#N canvas 356 60 875 849 writerF2 0;
#X msg 392 61 \; F2 resize 16385;
#X msg 392 110 \; F2 normalize;
#X msg 136 160 0 0 0.33 4096 1 8192 0.33 12288 0 16384;
#X obj 244 320 list split 4;
#X obj 135 280 list split 2;
#X obj 90 320 list append;
#X obj 275 442 unpack f f f f;
#X obj 172 512 -;
#X obj 172 477 f;
#X obj 214 477 f;
#X obj 172 588 /;
#X text 45 354 Loop through list;
#X text 214 511 delta y;
#X obj 275 512 -;
#X obj 275 477 f;
#X obj 330 477 f;
#X text 330 511 delta x;
#X text 196 244 first iteration;
#X text 204 587 steigung;
#X obj 151 679 *;
#X obj 151 714 +;
#X obj 68 788 pack f f;
#N canvas 266 304 1018 643 uzi 0;
#X obj 97 53 inlet;
#X obj 97 159 f \$1;
#X obj 97 249 sel 0;
#X obj 124 269 until;
#X obj 167 52 inlet;
#X obj 124 309 f;
#X obj 164 419 sel;
#X obj 255 419 outlet;
#X text 254 438 counter (starting at offset);
#X obj 164 439 outlet;
#X text 163 456 done;
#X obj 143 499 outlet;
#X text 142 516 bang;
#X obj 205 117 route offset;
#X obj 139 199 f \$2;
#X text 259 224 \$1 = n of bangs;
#X text 259 244 \$2 = offset;
#X obj 164 379 + 1;
#X obj 139 219 t f f;
#X obj 166 269 +;
#X text 259 194 except that the default offset is 0;
#X obj 124 329 t f b f;
#X obj 164 399 t f f;
#X obj 97 179 t f f b;
#X obj 117 119 t b f;
#X obj 97 89 route bang float;
#X text 259 174 vanilla version of [cyclone/uzi];
#X connect 0 0 25 0;
#X connect 1 0 23 0;
#X connect 2 1 3 0;
#X connect 3 0 5 0;
#X connect 4 0 1 1;
#X connect 5 0 21 0;
#X connect 6 0 9 0;
#X connect 13 0 14 1;
#X connect 14 0 18 0;
#X connect 17 0 22 0;
#X connect 18 0 5 1;
#X connect 18 1 19 1;
#X connect 19 0 6 1;
#X connect 21 0 17 0;
#X connect 21 1 11 0;
#X connect 21 2 7 0;
#X connect 22 0 6 0;
#X connect 22 1 5 1;
#X connect 23 0 2 0;
#X connect 23 1 19 0;
#X connect 23 2 14 0;
#X connect 24 0 1 0;
#X connect 24 1 1 1;
#X connect 25 0 1 0;
#X connect 25 1 24 0;
#X connect 25 2 13 0;
#X restore 37 547 pd uzi;
#X obj 69 611 t f f;
#X obj 68 749 +;
#X obj 37 477 t f f;
#X obj 37 442 f;
#X obj 90 679 +;
#X floatatom 90 714 5 0 0 0 - - - 0;
#X obj 37 512 t f 0;
#X obj 118 646 0;
#X obj 172 414 t b b b b;
#X obj 135 245 t l l b;
#X msg 68 823 \; F2 \$1 \$2;
#X obj 197 679 f;
#X obj 244 355 t b b l;
#X obj 57 14 loadbang;
#X obj 57 53 t b b;
#X connect 0 0 1 0;
#X connect 2 0 32 0;
#X connect 3 0 35 0;
#X connect 4 1 5 1;
#X connect 4 1 3 0;
#X connect 5 0 4 0;
#X connect 6 0 9 1;
#X connect 6 0 20 1;
#X connect 6 1 15 1;
#X connect 6 2 8 1;
#X connect 6 3 14 1;
#X connect 7 0 10 0;
#X connect 8 0 7 0;
#X connect 9 0 7 1;
#X connect 10 0 19 1;
#X connect 13 0 10 1;
#X connect 13 0 26 1;
#X connect 14 0 13 0;
#X connect 15 0 13 1;
#X connect 19 0 20 0;
#X connect 20 0 21 1;
#X connect 21 0 33 0;
#X connect 22 2 23 0;
#X connect 23 0 24 0;
#X connect 23 1 19 0;
#X connect 24 0 21 0;
#X connect 25 0 27 0;
#X connect 25 1 29 0;
#X connect 26 0 25 0;
#X connect 27 0 28 0;
#X connect 28 0 27 1;
#X connect 28 0 24 1;
#X connect 29 0 22 0;
#X connect 29 1 22 1;
#X connect 30 0 27 1;
#X connect 30 0 24 1;
#X connect 31 0 26 0;
#X connect 31 1 8 0;
#X connect 31 2 14 0;
#X connect 31 3 9 0;
#X connect 31 3 15 0;
#X connect 32 0 4 0;
#X connect 32 1 3 0;
#X connect 32 2 30 0;
#X connect 35 0 5 0;
#X connect 35 1 31 0;
#X connect 35 2 6 0;
#X connect 36 0 37 0;
#X connect 37 0 2 0;
#X connect 37 1 0 0;
#X restore 7 -100 pd writerF2;
#N canvas 308 252 710 529 writerF3 0;
#X obj 244 320 list split 4;
#X obj 135 280 list split 2;
#X obj 90 320 list append;
#X obj 275 442 unpack f f f f;
#X obj 172 512 -;
#X obj 172 477 f;
#X obj 214 477 f;
#X obj 172 588 /;
#X text 45 354 Loop through list;
#X text 214 511 delta y;
#X obj 275 512 -;
#X obj 275 477 f;
#X obj 330 477 f;
#X text 330 511 delta x;
#X text 196 244 first iteration;
#X text 204 587 steigung;
#X obj 151 679 *;
#X obj 151 714 +;
#X obj 68 788 pack f f;
#N canvas 266 304 1018 643 uzi 0;
#X obj 97 53 inlet;
#X obj 97 159 f \$1;
#X obj 97 249 sel 0;
#X obj 124 269 until;
#X obj 167 52 inlet;
#X obj 124 309 f;
#X obj 164 419 sel;
#X obj 255 419 outlet;
#X text 254 438 counter (starting at offset);
#X obj 164 439 outlet;
#X text 163 456 done;
#X obj 143 499 outlet;
#X text 142 516 bang;
#X obj 205 117 route offset;
#X obj 139 199 f \$2;
#X text 259 224 \$1 = n of bangs;
#X text 259 244 \$2 = offset;
#X obj 164 379 + 1;
#X obj 139 219 t f f;
#X obj 166 269 +;
#X text 259 194 except that the default offset is 0;
#X obj 124 329 t f b f;
#X obj 164 399 t f f;
#X obj 97 179 t f f b;
#X obj 117 119 t b f;
#X obj 97 89 route bang float;
#X text 259 174 vanilla version of [cyclone/uzi];
#X connect 0 0 25 0;
#X connect 1 0 23 0;
#X connect 2 1 3 0;
#X connect 3 0 5 0;
#X connect 4 0 1 1;
#X connect 5 0 21 0;
#X connect 6 0 9 0;
#X connect 13 0 14 1;
#X connect 14 0 18 0;
#X connect 17 0 22 0;
#X connect 18 0 5 1;
#X connect 18 1 19 1;
#X connect 19 0 6 1;
#X connect 21 0 17 0;
#X connect 21 1 11 0;
#X connect 21 2 7 0;
#X connect 22 0 6 0;
#X connect 22 1 5 1;
#X connect 23 0 2 0;
#X connect 23 1 19 0;
#X connect 23 2 14 0;
#X connect 24 0 1 0;
#X connect 24 1 1 1;
#X connect 25 0 1 0;
#X connect 25 1 24 0;
#X connect 25 2 13 0;
#X restore 37 547 pd uzi;
#X obj 69 611 t f f;
#X obj 68 749 +;
#X obj 37 477 t f f;
#X obj 37 442 f;
#X obj 90 679 +;
#X floatatom 90 714 5 0 0 0 - - - 0;
#X obj 37 512 t f 0;
#X obj 118 646 0;
#X obj 172 414 t b b b b;
#X obj 135 245 t l l b;
#X obj 197 679 f;
#X obj 244 355 t b b l;
#X msg 68 823 \; F3 \$1 \$2;
#X msg 136 160 1 0 0.543 2094 0.367 5246 0.2037 12620 0.0845 13913 0 16384;
#X obj 57 14 loadbang;
#X obj 57 53 t b b;
#X msg 106 57 \; F3 resize 16385;
#X msg 106 106 \; F3 normalize;
#X connect 0 0 31 0;
#X connect 1 1 2 1;
#X connect 1 1 0 0;
#X connect 2 0 1 0;
#X connect 3 0 6 1;
#X connect 3 0 17 1;
#X connect 3 1 12 1;
#X connect 3 2 5 1;
#X connect 3 3 11 1;
#X connect 4 0 7 0;
#X connect 5 0 4 0;
#X connect 6 0 4 1;
#X connect 7 0 16 1;
#X connect 10 0 7 1;
#X connect 10 0 23 1;
#X connect 11 0 10 0;
#X connect 12 0 10 1;
#X connect 16 0 17 0;
#X connect 17 0 18 1;
#X connect 18 0 32 0;
#X connect 19 2 20 0;
#X connect 20 0 21 0;
#X connect 20 1 16 0;
#X connect 21 0 18 0;
#X connect 22 0 24 0;
#X connect 22 1 26 0;
#X connect 23 0 22 0;
#X connect 24 0 25 0;
#X connect 25 0 24 1;
#X connect 25 0 21 1;
#X connect 26 0 19 0;
#X connect 26 1 19 1;
#X connect 27 0 24 1;
#X connect 27 0 21 1;
#X connect 28 0 23 0;
#X connect 28 1 5 0;
#X connect 28 2 11 0;
#X connect 28 3 6 0;
#X connect 28 3 12 0;
#X connect 29 0 1 0;
#X connect 29 1 0 0;
#X connect 29 2 27 0;
#X connect 31 0 2 0;
#X connect 31 1 28 0;
#X connect 31 2 3 0;
#X connect 33 0 29 0;
#X connect 34 0 35 0;
#X connect 35 0 33 0;
#X connect 35 1 36 0;
#X connect 36 0 37 0;
#X restore 7 -73 pd writerF3;
#N canvas 527 38 839 685 writerF4 0;
#X obj 244 320 list split 4;
#X obj 135 280 list split 2;
#X obj 90 320 list append;
#X obj 275 442 unpack f f f f;
#X obj 172 512 -;
#X obj 172 477 f;
#X obj 214 477 f;
#X obj 172 588 /;
#X text 45 354 Loop through list;
#X text 214 511 delta y;
#X obj 275 512 -;
#X obj 275 477 f;
#X obj 330 477 f;
#X text 330 511 delta x;
#X text 196 244 first iteration;
#X text 204 587 steigung;
#X obj 151 679 *;
#X obj 151 714 +;
#X obj 68 788 pack f f;
#N canvas 266 304 1018 643 uzi 0;
#X obj 97 53 inlet;
#X obj 97 159 f \$1;
#X obj 97 249 sel 0;
#X obj 124 269 until;
#X obj 167 52 inlet;
#X obj 124 309 f;
#X obj 164 419 sel;
#X obj 255 419 outlet;
#X text 254 438 counter (starting at offset);
#X obj 164 439 outlet;
#X text 163 456 done;
#X obj 143 499 outlet;
#X text 142 516 bang;
#X obj 205 117 route offset;
#X obj 139 199 f \$2;
#X text 259 224 \$1 = n of bangs;
#X text 259 244 \$2 = offset;
#X obj 164 379 + 1;
#X obj 139 219 t f f;
#X obj 166 269 +;
#X text 259 194 except that the default offset is 0;
#X obj 124 329 t f b f;
#X obj 164 399 t f f;
#X obj 97 179 t f f b;
#X obj 117 119 t b f;
#X obj 97 89 route bang float;
#X text 259 174 vanilla version of [cyclone/uzi];
#X connect 0 0 25 0;
#X connect 1 0 23 0;
#X connect 2 1 3 0;
#X connect 3 0 5 0;
#X connect 4 0 1 1;
#X connect 5 0 21 0;
#X connect 6 0 9 0;
#X connect 13 0 14 1;
#X connect 14 0 18 0;
#X connect 17 0 22 0;
#X connect 18 0 5 1;
#X connect 18 1 19 1;
#X connect 19 0 6 1;
#X connect 21 0 17 0;
#X connect 21 1 11 0;
#X connect 21 2 7 0;
#X connect 22 0 6 0;
#X connect 22 1 5 1;
#X connect 23 0 2 0;
#X connect 23 1 19 0;
#X connect 23 2 14 0;
#X connect 24 0 1 0;
#X connect 24 1 1 1;
#X connect 25 0 1 0;
#X connect 25 1 24 0;
#X connect 25 2 13 0;
#X restore 37 547 pd uzi;
#X obj 69 611 t f f;
#X obj 68 749 +;
#X obj 37 477 t f f;
#X obj 37 442 f;
#X obj 90 679 +;
#X floatatom 90 714 5 0 0 0 - - - 0;
#X obj 37 512 t f 0;
#X obj 118 646 0;
#X obj 172 414 t b b b b;
#X obj 135 245 t l l b;
#X obj 197 679 f;
#X obj 244 355 t b b l;
#X msg 68 823 \; F4 \$1 \$2;
#X msg 136 160 1 0 0.4 1500 0.2 2500 0.15 3220 0.08 4220 0 5464 0 16384;
#X obj 57 14 loadbang;
#X obj 57 53 t b b;
#X msg 106 57 \; F4 resize 16385;
#X msg 106 106 \; F4 normalize;
#X connect 0 0 31 0;
#X connect 1 1 2 1;
#X connect 1 1 0 0;
#X connect 2 0 1 0;
#X connect 3 0 6 1;
#X connect 3 0 17 1;
#X connect 3 1 12 1;
#X connect 3 2 5 1;
#X connect 3 3 11 1;
#X connect 4 0 7 0;
#X connect 5 0 4 0;
#X connect 6 0 4 1;
#X connect 7 0 16 1;
#X connect 10 0 7 1;
#X connect 10 0 23 1;
#X connect 11 0 10 0;
#X connect 12 0 10 1;
#X connect 16 0 17 0;
#X connect 17 0 18 1;
#X connect 18 0 32 0;
#X connect 19 2 20 0;
#X connect 20 0 21 0;
#X connect 20 1 16 0;
#X connect 21 0 18 0;
#X connect 22 0 24 0;
#X connect 22 1 26 0;
#X connect 23 0 22 0;
#X connect 24 0 25 0;
#X connect 25 0 24 1;
#X connect 25 0 21 1;
#X connect 26 0 19 0;
#X connect 26 1 19 1;
#X connect 27 0 24 1;
#X connect 27 0 21 1;
#X connect 28 0 23 0;
#X connect 28 1 5 0;
#X connect 28 2 11 0;
#X connect 28 3 6 0;
#X connect 28 3 12 0;
#X connect 29 0 1 0;
#X connect 29 1 0 0;
#X connect 29 2 27 0;
#X connect 31 0 2 0;
#X connect 31 1 28 0;
#X connect 31 2 3 0;
#X connect 33 0 29 0;
#X connect 34 0 35 0;
#X connect 35 0 33 0;
#X connect 35 1 36 0;
#X connect 36 0 37 0;
#X restore 7 -46 pd writerF4;
#N canvas 170 64 778 700 writerF5 0;
#X obj 244 320 list split 4;
#X obj 135 280 list split 2;
#X obj 90 320 list append;
#X obj 275 442 unpack f f f f;
#X obj 172 512 -;
#X obj 172 477 f;
#X obj 214 477 f;
#X obj 172 588 /;
#X text 45 354 Loop through list;
#X text 214 511 delta y;
#X obj 275 512 -;
#X obj 275 477 f;
#X obj 330 477 f;
#X text 330 511 delta x;
#X text 196 244 first iteration;
#X text 204 587 steigung;
#X obj 151 679 *;
#X obj 151 714 +;
#X obj 68 788 pack f f;
#N canvas 266 304 1018 643 uzi 0;
#X obj 97 53 inlet;
#X obj 97 159 f \$1;
#X obj 97 249 sel 0;
#X obj 124 269 until;
#X obj 167 52 inlet;
#X obj 124 309 f;
#X obj 164 419 sel;
#X obj 255 419 outlet;
#X text 254 438 counter (starting at offset);
#X obj 164 439 outlet;
#X text 163 456 done;
#X obj 143 499 outlet;
#X text 142 516 bang;
#X obj 205 117 route offset;
#X obj 139 199 f \$2;
#X text 259 224 \$1 = n of bangs;
#X text 259 244 \$2 = offset;
#X obj 164 379 + 1;
#X obj 139 219 t f f;
#X obj 166 269 +;
#X text 259 194 except that the default offset is 0;
#X obj 124 329 t f b f;
#X obj 164 399 t f f;
#X obj 97 179 t f f b;
#X obj 117 119 t b f;
#X obj 97 89 route bang float;
#X text 259 174 vanilla version of [cyclone/uzi];
#X connect 0 0 25 0;
#X connect 1 0 23 0;
#X connect 2 1 3 0;
#X connect 3 0 5 0;
#X connect 4 0 1 1;
#X connect 5 0 21 0;
#X connect 6 0 9 0;
#X connect 13 0 14 1;
#X connect 14 0 18 0;
#X connect 17 0 22 0;
#X connect 18 0 5 1;
#X connect 18 1 19 1;
#X connect 19 0 6 1;
#X connect 21 0 17 0;
#X connect 21 1 11 0;
#X connect 21 2 7 0;
#X connect 22 0 6 0;
#X connect 22 1 5 1;
#X connect 23 0 2 0;
#X connect 23 1 19 0;
#X connect 23 2 14 0;
#X connect 24 0 1 0;
#X connect 24 1 1 1;
#X connect 25 0 1 0;
#X connect 25 1 24 0;
#X connect 25 2 13 0;
#X restore 37 547 pd uzi;
#X obj 69 611 t f f;
#X obj 68 749 +;
#X obj 37 477 t f f;
#X obj 37 442 f;
#X obj 90 679 +;
#X floatatom 90 714 5 0 0 0 - - - 0;
#X obj 37 512 t f 0;
#X obj 118 646 0;
#X obj 172 414 t b b b b;
#X obj 135 245 t l l b;
#X obj 197 679 f;
#X obj 244 355 t b b l;
#X msg 68 823 \; F5 \$1 \$2;
#X msg 106 57 \; F5 resize 16385;
#X msg 106 106 \; F5 normalize;
#X msg 136 160 0.6904 0 1 2525 0.71 5990 0.255 9994 0.15 11345 0 16384;
#X obj 57 14 loadbang;
#X obj 57 53 t b b;
#X connect 0 0 31 0;
#X connect 1 1 2 1;
#X connect 1 1 0 0;
#X connect 2 0 1 0;
#X connect 3 0 6 1;
#X connect 3 0 17 1;
#X connect 3 1 12 1;
#X connect 3 2 5 1;
#X connect 3 3 11 1;
#X connect 4 0 7 0;
#X connect 5 0 4 0;
#X connect 6 0 4 1;
#X connect 7 0 16 1;
#X connect 10 0 7 1;
#X connect 10 0 23 1;
#X connect 11 0 10 0;
#X connect 12 0 10 1;
#X connect 16 0 17 0;
#X connect 17 0 18 1;
#X connect 18 0 32 0;
#X connect 19 2 20 0;
#X connect 20 0 21 0;
#X connect 20 1 16 0;
#X connect 21 0 18 0;
#X connect 22 0 24 0;
#X connect 22 1 26 0;
#X connect 23 0 22 0;
#X connect 24 0 25 0;
#X connect 25 0 24 1;
#X connect 25 0 21 1;
#X connect 26 0 19 0;
#X connect 26 1 19 1;
#X connect 27 0 24 1;
#X connect 27 0 21 1;
#X connect 28 0 23 0;
#X connect 28 1 5 0;
#X connect 28 2 11 0;
#X connect 28 3 6 0;
#X connect 28 3 12 0;
#X connect 29 0 1 0;
#X connect 29 1 0 0;
#X connect 29 2 27 0;
#X connect 31 0 2 0;
#X connect 31 1 28 0;
#X connect 31 2 3 0;
#X connect 33 0 34 0;
#X connect 35 0 29 0;
#X connect 36 0 37 0;
#X connect 37 0 35 0;
#X connect 37 1 33 0;
#X restore 7 -19 pd writerF5;
#N canvas 2 92 965 627 writerF6 0;
#X obj 244 320 list split 4;
#X obj 135 280 list split 2;
#X obj 90 320 list append;
#X obj 275 442 unpack f f f f;
#X obj 172 512 -;
#X obj 172 477 f;
#X obj 214 477 f;
#X obj 172 588 /;
#X text 45 354 Loop through list;
#X text 214 511 delta y;
#X obj 275 512 -;
#X obj 275 477 f;
#X obj 330 477 f;
#X text 330 511 delta x;
#X text 196 244 first iteration;
#X text 204 587 steigung;
#X obj 151 679 *;
#X obj 151 714 +;
#X obj 68 788 pack f f;
#N canvas 266 304 1018 643 uzi 0;
#X obj 97 53 inlet;
#X obj 97 159 f \$1;
#X obj 97 249 sel 0;
#X obj 124 269 until;
#X obj 167 52 inlet;
#X obj 124 309 f;
#X obj 164 419 sel;
#X obj 255 419 outlet;
#X text 254 438 counter (starting at offset);
#X obj 164 439 outlet;
#X text 163 456 done;
#X obj 143 499 outlet;
#X text 142 516 bang;
#X obj 205 117 route offset;
#X obj 139 199 f \$2;
#X text 259 224 \$1 = n of bangs;
#X text 259 244 \$2 = offset;
#X obj 164 379 + 1;
#X obj 139 219 t f f;
#X obj 166 269 +;
#X text 259 194 except that the default offset is 0;
#X obj 124 329 t f b f;
#X obj 164 399 t f f;
#X obj 97 179 t f f b;
#X obj 117 119 t b f;
#X obj 97 89 route bang float;
#X text 259 174 vanilla version of [cyclone/uzi];
#X connect 0 0 25 0;
#X connect 1 0 23 0;
#X connect 2 1 3 0;
#X connect 3 0 5 0;
#X connect 4 0 1 1;
#X connect 5 0 21 0;
#X connect 6 0 9 0;
#X connect 13 0 14 1;
#X connect 14 0 18 0;
#X connect 17 0 22 0;
#X connect 18 0 5 1;
#X connect 18 1 19 1;
#X connect 19 0 6 1;
#X connect 21 0 17 0;
#X connect 21 1 11 0;
#X connect 21 2 7 0;
#X connect 22 0 6 0;
#X connect 22 1 5 1;
#X connect 23 0 2 0;
#X connect 23 1 19 0;
#X connect 23 2 14 0;
#X connect 24 0 1 0;
#X connect 24 1 1 1;
#X connect 25 0 1 0;
#X connect 25 1 24 0;
#X connect 25 2 13 0;
#X restore 37 547 pd uzi;
#X obj 69 611 t f f;
#X obj 68 749 +;
#X obj 37 477 t f f;
#X obj 37 442 f;
#X obj 90 679 +;
#X floatatom 90 714 5 0 0 0 - - - 0;
#X obj 37 512 t f 0;
#X obj 118 646 0;
#X obj 172 414 t b b b b;
#X obj 135 245 t l l b;
#X obj 197 679 f;
#X obj 244 355 t b b l;
#X msg 136 160 -0.5 0 0.04 3276 0.08 6552 0.01 9828 0.03 16384;
#X msg 68 823 \; F6 \$1 \$2;
#X msg 106 57 \; F6 resize 16385;
#X msg 106 106 \; F6 normalize;
#X obj 57 14 loadbang;
#X obj 57 53 t b b;
#X connect 0 0 31 0;
#X connect 1 1 2 1;
#X connect 1 1 0 0;
#X connect 2 0 1 0;
#X connect 3 0 6 1;
#X connect 3 0 17 1;
#X connect 3 1 12 1;
#X connect 3 2 5 1;
#X connect 3 3 11 1;
#X connect 4 0 7 0;
#X connect 5 0 4 0;
#X connect 6 0 4 1;
#X connect 7 0 16 1;
#X connect 10 0 7 1;
#X connect 10 0 23 1;
#X connect 11 0 10 0;
#X connect 12 0 10 1;
#X connect 16 0 17 0;
#X connect 17 0 18 1;
#X connect 18 0 33 0;
#X connect 19 2 20 0;
#X connect 20 0 21 0;
#X connect 20 1 16 0;
#X connect 21 0 18 0;
#X connect 22 0 24 0;
#X connect 22 1 26 0;
#X connect 23 0 22 0;
#X connect 24 0 25 0;
#X connect 25 0 24 1;
#X connect 25 0 21 1;
#X connect 26 0 19 0;
#X connect 26 1 19 1;
#X connect 27 0 24 1;
#X connect 27 0 21 1;
#X connect 28 0 23 0;
#X connect 28 1 5 0;
#X connect 28 2 11 0;
#X connect 28 3 6 0;
#X connect 28 3 12 0;
#X connect 29 0 1 0;
#X connect 29 1 0 0;
#X connect 29 2 27 0;
#X connect 31 0 2 0;
#X connect 31 1 28 0;
#X connect 31 2 3 0;
#X connect 32 0 29 0;
#X connect 34 0 35 0;
#X connect 36 0 37 0;
#X connect 37 0 32 0;
#X connect 37 1 34 0;
#X restore 7 8 pd writerF6;
#N canvas 202 146 775 578 writerF7 0;
#X obj 244 320 list split 4;
#X obj 135 280 list split 2;
#X obj 90 320 list append;
#X obj 275 442 unpack f f f f;
#X obj 172 512 -;
#X obj 172 477 f;
#X obj 214 477 f;
#X obj 172 588 /;
#X text 45 354 Loop through list;
#X text 214 511 delta y;
#X obj 275 512 -;
#X obj 275 477 f;
#X obj 330 477 f;
#X text 330 511 delta x;
#X text 196 244 first iteration;
#X text 204 587 steigung;
#X obj 151 679 *;
#X obj 151 714 +;
#X obj 68 788 pack f f;
#N canvas 266 304 1018 643 uzi 0;
#X obj 97 53 inlet;
#X obj 97 159 f \$1;
#X obj 97 249 sel 0;
#X obj 124 269 until;
#X obj 167 52 inlet;
#X obj 124 309 f;
#X obj 164 419 sel;
#X obj 255 419 outlet;
#X text 254 438 counter (starting at offset);
#X obj 164 439 outlet;
#X text 163 456 done;
#X obj 143 499 outlet;
#X text 142 516 bang;
#X obj 205 117 route offset;
#X obj 139 199 f \$2;
#X text 259 224 \$1 = n of bangs;
#X text 259 244 \$2 = offset;
#X obj 164 379 + 1;
#X obj 139 219 t f f;
#X obj 166 269 +;
#X text 259 194 except that the default offset is 0;
#X obj 124 329 t f b f;
#X obj 164 399 t f f;
#X obj 97 179 t f f b;
#X obj 117 119 t b f;
#X obj 97 89 route bang float;
#X text 259 174 vanilla version of [cyclone/uzi];
#X connect 0 0 25 0;
#X connect 1 0 23 0;
#X connect 2 1 3 0;
#X connect 3 0 5 0;
#X connect 4 0 1 1;
#X connect 5 0 21 0;
#X connect 6 0 9 0;
#X connect 13 0 14 1;
#X connect 14 0 18 0;
#X connect 17 0 22 0;
#X connect 18 0 5 1;
#X connect 18 1 19 1;
#X connect 19 0 6 1;
#X connect 21 0 17 0;
#X connect 21 1 11 0;
#X connect 21 2 7 0;
#X connect 22 0 6 0;
#X connect 22 1 5 1;
#X connect 23 0 2 0;
#X connect 23 1 19 0;
#X connect 23 2 14 0;
#X connect 24 0 1 0;
#X connect 24 1 1 1;
#X connect 25 0 1 0;
#X connect 25 1 24 0;
#X connect 25 2 13 0;
#X restore 37 547 pd uzi;
#X obj 69 611 t f f;
#X obj 68 749 +;
#X obj 37 477 t f f;
#X obj 37 442 f;
#X obj 90 679 +;
#X floatatom 90 714 5 0 0 0 - - - 0;
#X obj 37 512 t f 0;
#X obj 118 646 0;
#X obj 172 414 t b b b b;
#X obj 135 245 t l l b;
#X obj 197 679 f;
#X obj 244 355 t b b l;
#X msg 136 160 0 0 0.35 3000 0.85 3010 1 3100 0.857 6034 0.44 7415 0.214 8967 0.107 11296 0 16384;
#X msg 68 823 \; F7 \$1 \$2;
#X msg 106 57 \; F7 resize 16385;
#X msg 106 106 \; F7 normalize;
#X obj 57 14 loadbang;
#X obj 57 53 t b b;
#X connect 0 0 31 0;
#X connect 1 1 2 1;
#X connect 1 1 0 0;
#X connect 2 0 1 0;
#X connect 3 0 6 1;
#X connect 3 0 17 1;
#X connect 3 1 12 1;
#X connect 3 2 5 1;
#X connect 3 3 11 1;
#X connect 4 0 7 0;
#X connect 5 0 4 0;
#X connect 6 0 4 1;
#X connect 7 0 16 1;
#X connect 10 0 7 1;
#X connect 10 0 23 1;
#X connect 11 0 10 0;
#X connect 12 0 10 1;
#X connect 16 0 17 0;
#X connect 17 0 18 1;
#X connect 18 0 33 0;
#X connect 19 2 20 0;
#X connect 20 0 21 0;
#X connect 20 1 16 0;
#X connect 21 0 18 0;
#X connect 22 0 24 0;
#X connect 22 1 26 0;
#X connect 23 0 22 0;
#X connect 24 0 25 0;
#X connect 25 0 24 1;
#X connect 25 0 21 1;
#X connect 26 0 19 0;
#X connect 26 1 19 1;
#X connect 27 0 24 1;
#X connect 27 0 21 1;
#X connect 28 0 23 0;
#X connect 28 1 5 0;
#X connect 28 2 11 0;
#X connect 28 3 6 0;
#X connect 28 3 12 0;
#X connect 29 0 1 0;
#X connect 29 1 0 0;
#X connect 29 2 27 0;
#X connect 31 0 2 0;
#X connect 31 1 28 0;
#X connect 31 2 3 0;
#X connect 32 0 29 0;
#X connect 34 0 35 0;
#X connect 36 0 37 0;
#X connect 37 0 32 0;
#X connect 37 1 34 0;
#X restore 7 35 pd writerF7;
#X obj 100 62 table F8;
#X text 182 -127 These are the functiontables F1-F9 to be read in the engine;
#N canvas 372 174 605 606 writerF8 0;
#X obj 244 320 list split 4;
#X obj 135 280 list split 2;
#X obj 90 320 list append;
#X obj 275 442 unpack f f f f;
#X obj 172 512 -;
#X obj 172 477 f;
#X obj 214 477 f;
#X obj 172 588 /;
#X text 45 354 Loop through list;
#X text 214 511 delta y;
#X obj 275 512 -;
#X obj 275 477 f;
#X obj 330 477 f;
#X text 330 511 delta x;
#X text 196 244 first iteration;
#X text 204 587 steigung;
#X obj 151 679 *;
#X obj 151 714 +;
#X obj 68 788 pack f f;
#N canvas 266 304 1018 643 uzi 0;
#X obj 97 53 inlet;
#X obj 97 159 f \$1;
#X obj 97 249 sel 0;
#X obj 124 269 until;
#X obj 167 52 inlet;
#X obj 124 309 f;
#X obj 164 419 sel;
#X obj 255 419 outlet;
#X text 254 438 counter (starting at offset);
#X obj 164 439 outlet;
#X text 163 456 done;
#X obj 143 499 outlet;
#X text 142 516 bang;
#X obj 205 117 route offset;
#X obj 139 199 f \$2;
#X text 259 224 \$1 = n of bangs;
#X text 259 244 \$2 = offset;
#X obj 164 379 + 1;
#X obj 139 219 t f f;
#X obj 166 269 +;
#X text 259 194 except that the default offset is 0;
#X obj 124 329 t f b f;
#X obj 164 399 t f f;
#X obj 97 179 t f f b;
#X obj 117 119 t b f;
#X obj 97 89 route bang float;
#X text 259 174 vanilla version of [cyclone/uzi];
#X connect 0 0 25 0;
#X connect 1 0 23 0;
#X connect 2 1 3 0;
#X connect 3 0 5 0;
#X connect 4 0 1 1;
#X connect 5 0 21 0;
#X connect 6 0 9 0;
#X connect 13 0 14 1;
#X connect 14 0 18 0;
#X connect 17 0 22 0;
#X connect 18 0 5 1;
#X connect 18 1 19 1;
#X connect 19 0 6 1;
#X connect 21 0 17 0;
#X connect 21 1 11 0;
#X connect 21 2 7 0;
#X connect 22 0 6 0;
#X connect 22 1 5 1;
#X connect 23 0 2 0;
#X connect 23 1 19 0;
#X connect 23 2 14 0;
#X connect 24 0 1 0;
#X connect 24 1 1 1;
#X connect 25 0 1 0;
#X connect 25 1 24 0;
#X connect 25 2 13 0;
#X restore 37 547 pd uzi;
#X obj 69 611 t f f;
#X obj 68 749 +;
#X obj 37 477 t f f;
#X obj 37 442 f;
#X obj 90 679 +;
#X floatatom 90 714 5 0 0 0 - - - 0;
#X obj 37 512 t f 0;
#X obj 118 646 0;
#X obj 172 414 t b b b b;
#X obj 135 245 t l l b;
#X obj 197 679 f;
#X obj 244 355 t b b l;
#X msg 136 160 0 0 0.135 2071 0.27 3279 0.416 3712 0.827 3889 0.949 4580 0.998 5270 1 6478 0.916 7253 0.7 8113 0.365 10093 0.234 11557 0 16384;
#X msg 68 823 \; F8 \$1 \$2;
#X msg 106 57 \; F8 resize 16385;
#X msg 106 106 \; F8 normalize;
#X obj 57 14 loadbang;
#X obj 57 53 t b b;
#X connect 0 0 31 0;
#X connect 1 1 2 1;
#X connect 1 1 0 0;
#X connect 2 0 1 0;
#X connect 3 0 6 1;
#X connect 3 0 17 1;
#X connect 3 1 12 1;
#X connect 3 2 5 1;
#X connect 3 3 11 1;
#X connect 4 0 7 0;
#X connect 5 0 4 0;
#X connect 6 0 4 1;
#X connect 7 0 16 1;
#X connect 10 0 7 1;
#X connect 10 0 23 1;
#X connect 11 0 10 0;
#X connect 12 0 10 1;
#X connect 16 0 17 0;
#X connect 17 0 18 1;
#X connect 18 0 33 0;
#X connect 19 2 20 0;
#X connect 20 0 21 0;
#X connect 20 1 16 0;
#X connect 21 0 18 0;
#X connect 22 0 24 0;
#X connect 22 1 26 0;
#X connect 23 0 22 0;
#X connect 24 0 25 0;
#X connect 25 0 24 1;
#X connect 25 0 21 1;
#X connect 26 0 19 0;
#X connect 26 1 19 1;
#X connect 27 0 24 1;
#X connect 27 0 21 1;
#X connect 28 0 23 0;
#X connect 28 1 5 0;
#X connect 28 2 11 0;
#X connect 28 3 6 0;
#X connect 28 3 12 0;
#X connect 29 0 1 0;
#X connect 29 1 0 0;
#X connect 29 2 27 0;
#X connect 31 0 2 0;
#X connect 31 1 28 0;
#X connect 31 2 3 0;
#X connect 32 0 29 0;
#X connect 34 0 35 0;
#X connect 36 0 37 0;
#X connect 37 0 32 0;
#X connect 37 1 34 0;
#X restore 7 62 pd writerF8;
#X coords 0 505 1 504 85 60 0;
