#N canvas 266 304 625 560 12;
#X obj 114 341 route 0 1;
#X obj 114 315 list prepend 0;
#X obj 116 109 inlet;
#X obj 287 100 inlet;
#X obj 114 467 outlet;
#X connect 0 1 4 0;
#X connect 1 0 0 0;
#X connect 2 0 1 1;
#X connect 3 0 1 0;
