#N canvas 443 110 1438 587 12;
#X obj 476 19 inlet;
#X obj 559 1025 s toengine;
#N canvas 324 45 545 318 listiter 0;
#X obj 59 109 until;
#X obj 59 184 list store;
#X obj 57 48 t b b l;
#X obj 59 134 f;
#X obj 97 134 + 1;
#X msg 116 109 0, f 2;
#X msg 59 159 get \$1 1;
#X obj 57 23 inlet;
#X obj 58 219 outlet;
#X connect 0 0 3 0;
#X connect 1 0 8 0;
#X connect 1 1 0 1;
#X connect 2 0 0 0;
#X connect 2 1 5 0;
#X connect 2 2 1 1;
#X connect 3 0 4 0;
#X connect 3 0 6 0;
#X connect 4 0 3 1;
#X connect 5 0 3 1;
#X connect 6 0 1 0;
#X connect 7 0 2 0;
#X restore 585 120 pd listiter;
#X obj 592 222 list split 2;
#X obj 592 263 unpack f f;
#X obj 598 317 +;
#X obj 592 291 t f f;
#X text 595 880 (start event*Values per second;
#X text 883 878 (end event)*values per sekond;
#X obj 558 881 *;
#X obj 848 879 *;
#X text 799 994 format message as: event 127 fadernumber endevent startevent;
#X obj 638 917 loadbang;
#X text 717 916 set Fader to controll the data;
#X obj 821 842 -;
#X obj 449 659 until;
#X obj 449 803 list store;
#X obj 447 598 t b b l;
#X obj 449 684 f;
#X obj 487 684 + 1;
#X msg 506 659 0, f 2;
#X msg 449 769 get \$1 1;
#X obj 558 851 -;
#X obj 535 804 list store;
#X obj 633 805 list store;
#X obj 530 81 t b b b l;
#X text 772 632 collect and iterate through three lists 1.event number 2.start event 3.end event;
#X obj 644 956 f \$1;
#X msg 535 768 get \$1 1;
#X msg 636 767 get \$1 1;
#X obj 450 725 t f f f;
#N canvas 1072 488 656 409 listcollect 0;
#X obj 163 13 inlet;
#X obj 58 309 outlet;
#X obj 60 13 inlet;
#X obj 55 155 list append;
#X obj 55 188 list;
#X obj 60 46 t b b b;
#X obj 58 249 list;
#X connect 0 0 3 0;
#X connect 2 0 5 0;
#X connect 3 0 4 0;
#X connect 4 0 3 1;
#X connect 4 0 6 1;
#X connect 5 0 3 0;
#X connect 5 1 3 1;
#X connect 5 2 6 0;
#X connect 6 0 1 0;
#X restore 447 562 pd listcollect;
#X text 553 562 collect event numbers to reverse order;
#N canvas 764 168 964 589 combinedEventDuration 0;
#X obj 152 79 inlet;
#X obj 269 79 inlet;
#N canvas 1072 488 656 409 listcollect 0;
#X obj 163 13 inlet;
#X obj 58 309 outlet;
#X obj 60 13 inlet;
#X obj 55 155 list append;
#X obj 55 188 list;
#X obj 60 46 t b b b;
#X obj 58 249 list;
#X connect 0 0 3 0;
#X connect 2 0 5 0;
#X connect 3 0 4 0;
#X connect 4 0 3 1;
#X connect 4 0 6 1;
#X connect 5 0 3 0;
#X connect 5 1 3 1;
#X connect 5 2 6 0;
#X connect 6 0 1 0;
#X restore 61 135 pd listcollect;
#N canvas 1072 488 656 437 listcollect 0;
#X obj 163 13 inlet;
#X obj 58 309 outlet;
#X obj 60 13 inlet;
#X obj 55 155 list append;
#X obj 55 188 list;
#X obj 60 46 t b b b;
#X obj 58 249 list;
#X connect 0 0 3 0;
#X connect 2 0 5 0;
#X connect 3 0 4 0;
#X connect 4 0 3 1;
#X connect 4 0 6 1;
#X connect 5 0 3 0;
#X connect 5 1 3 1;
#X connect 5 2 6 0;
#X connect 6 0 1 0;
#X restore 173 135 pd listcollect;
#X obj 101 249 -;
#N canvas 154 138 1030 511 listmax 0;
#X obj 85 167 route float;
#X obj 110 297 f;
#X obj 56 453 outlet;
#X obj 112 418 f;
#X obj 112 455 outlet;
#X obj 56 334 t b b;
#X obj 56 35 inlet;
#X obj 56 418 f;
#N canvas 150 188 450 244 once 0;
#X obj 110 75 inlet;
#X obj 105 187 spigot 1;
#X obj 110 104 t b f;
#X msg 125 151 0;
#X msg 165 99 1;
#X obj 165 63 inlet;
#X obj 102 219 outlet;
#X connect 0 0 2 0;
#X connect 1 0 6 0;
#X connect 2 0 3 0;
#X connect 2 1 1 0;
#X connect 3 0 1 1;
#X connect 4 0 1 1;
#X connect 5 0 4 0;
#X restore 177 245 pd once;
#X obj 71 297 max;
#X text 232 245 prime [min] and [max] with first item once;
#X obj 150 297 bang;
#X msg 279 297 0;
#X obj 105 333 change;
#X obj 137 391 f;
#X obj 105 362 bang;
#N canvas 917 609 301 286 cup 0;
#X obj 64 45 inlet;
#X obj 64 161 i;
#X obj 104 161 + 1;
#X obj 64 99 route bang setbang float;
#X obj 64 235 outlet;
#X connect 0 0 3 0;
#X connect 1 0 2 0;
#X connect 1 0 4 0;
#X connect 2 0 1 1;
#X connect 3 0 1 0;
#X connect 3 1 1 0;
#X connect 3 2 1 1;
#X restore 152 333 pd cup;
#N canvas 833 279 728 511 list-drip 0;
#X obj 73 94 t a a;
#X obj 73 251 spigot;
#X obj 112 159 bang;
#X obj 112 178 1;
#X obj 233 159 route bang;
#X obj 193 160 bang;
#X obj 193 179 0;
#X obj 112 124 list split 2;
#X obj 242 389 list split;
#X obj 309 338 list length;
#X obj 309 360 >> 1;
#X obj 73 270 t a a a a;
#X obj 73 456 list split;
#X obj 140 408 list length;
#X obj 140 433 >> 1;
#X obj 41 29 inlet;
#X obj 300 185 outlet;
#X text 83 29 Copyright 2009 by Mathieu Bouchard;
#X obj 41 63 t b a;
#X obj 475 129 outlet;
#X text 530 131 signal end of list;
#X text 391 33 made compatible with [list-drip]: fbar 2009;
#X connect 0 0 1 0;
#X connect 0 1 7 0;
#X connect 1 0 11 0;
#X connect 2 0 3 0;
#X connect 3 0 1 1;
#X connect 4 1 16 0;
#X connect 5 0 6 0;
#X connect 6 0 1 1;
#X connect 7 0 2 0;
#X connect 7 2 4 0;
#X connect 7 2 5 0;
#X connect 8 0 0 0;
#X connect 9 0 10 0;
#X connect 10 0 8 1;
#X connect 11 0 12 0;
#X connect 11 1 13 0;
#X connect 11 2 8 0;
#X connect 11 3 9 0;
#X connect 12 1 0 0;
#X connect 13 0 14 0;
#X connect 14 0 12 1;
#X connect 15 0 18 0;
#X connect 18 0 19 0;
#X connect 18 1 0 0;
#X restore 85 142 pd list-drip;
#X obj 56 73 trigger b a b b;
#X obj 71 194 trigger a a a;
#X connect 0 0 19 0;
#X connect 1 0 9 1;
#X connect 3 0 4 0;
#X connect 5 0 7 0;
#X connect 5 1 3 0;
#X connect 6 0 18 0;
#X connect 7 0 2 0;
#X connect 8 0 9 1;
#X connect 9 0 1 0;
#X connect 9 0 7 1;
#X connect 9 0 13 0;
#X connect 11 0 16 0;
#X connect 12 0 14 0;
#X connect 12 0 16 0;
#X connect 13 0 15 0;
#X connect 14 0 3 1;
#X connect 15 0 14 0;
#X connect 16 0 14 1;
#X connect 17 0 0 0;
#X connect 18 0 5 0;
#X connect 18 1 17 0;
#X connect 18 2 8 1;
#X connect 18 3 12 0;
#X connect 19 0 9 0;
#X connect 19 1 11 0;
#X connect 19 2 8 0;
#X restore 64 189 pd listmax;
#N canvas 154 138 1030 483 listmin 0;
#X obj 85 167 route float;
#X obj 110 297 f;
#X obj 56 453 outlet;
#X obj 112 418 f;
#X obj 112 455 outlet;
#X obj 56 334 t b b;
#X obj 56 35 inlet;
#X obj 56 418 f;
#N canvas 150 188 450 272 once 0;
#X obj 110 75 inlet;
#X obj 105 187 spigot 1;
#X obj 110 104 t b f;
#X msg 125 151 0;
#X msg 165 99 1;
#X obj 165 63 inlet;
#X obj 102 219 outlet;
#X connect 0 0 2 0;
#X connect 1 0 6 0;
#X connect 2 0 3 0;
#X connect 2 1 1 0;
#X connect 3 0 1 1;
#X connect 4 0 1 1;
#X connect 5 0 4 0;
#X restore 177 245 pd once;
#X text 232 245 prime [min] and [max] with first item once;
#X obj 150 297 bang;
#X msg 279 297 0;
#X obj 105 333 change;
#X obj 137 391 f;
#X obj 105 362 bang;
#N canvas 917 609 301 286 cup 0;
#X obj 64 45 inlet;
#X obj 64 161 i;
#X obj 104 161 + 1;
#X obj 64 99 route bang setbang float;
#X obj 64 235 outlet;
#X connect 0 0 3 0;
#X connect 1 0 2 0;
#X connect 1 0 4 0;
#X connect 2 0 1 1;
#X connect 3 0 1 0;
#X connect 3 1 1 0;
#X connect 3 2 1 1;
#X restore 152 333 pd cup;
#N canvas 833 279 728 539 list-drip 0;
#X obj 73 94 t a a;
#X obj 73 251 spigot;
#X obj 112 159 bang;
#X obj 112 178 1;
#X obj 233 159 route bang;
#X obj 193 160 bang;
#X obj 193 179 0;
#X obj 112 124 list split 2;
#X obj 242 389 list split;
#X obj 309 338 list length;
#X obj 309 360 >> 1;
#X obj 73 270 t a a a a;
#X obj 73 456 list split;
#X obj 140 408 list length;
#X obj 140 433 >> 1;
#X obj 41 29 inlet;
#X obj 300 185 outlet;
#X text 83 29 Copyright 2009 by Mathieu Bouchard;
#X obj 41 63 t b a;
#X obj 475 129 outlet;
#X text 530 131 signal end of list;
#X text 391 33 made compatible with [list-drip]: fbar 2009;
#X connect 0 0 1 0;
#X connect 0 1 7 0;
#X connect 1 0 11 0;
#X connect 2 0 3 0;
#X connect 3 0 1 1;
#X connect 4 1 16 0;
#X connect 5 0 6 0;
#X connect 6 0 1 1;
#X connect 7 0 2 0;
#X connect 7 2 4 0;
#X connect 7 2 5 0;
#X connect 8 0 0 0;
#X connect 9 0 10 0;
#X connect 10 0 8 1;
#X connect 11 0 12 0;
#X connect 11 1 13 0;
#X connect 11 2 8 0;
#X connect 11 3 9 0;
#X connect 12 1 0 0;
#X connect 13 0 14 0;
#X connect 14 0 12 1;
#X connect 15 0 18 0;
#X connect 18 0 19 0;
#X connect 18 1 0 0;
#X restore 85 142 pd list-drip;
#X obj 56 73 trigger b a b b;
#X obj 71 194 trigger a a a;
#X obj 71 297 min;
#X connect 0 0 18 0;
#X connect 1 0 19 1;
#X connect 3 0 4 0;
#X connect 5 0 7 0;
#X connect 5 1 3 0;
#X connect 6 0 17 0;
#X connect 7 0 2 0;
#X connect 8 0 19 1;
#X connect 10 0 15 0;
#X connect 11 0 13 0;
#X connect 11 0 15 0;
#X connect 12 0 14 0;
#X connect 13 0 3 1;
#X connect 14 0 13 0;
#X connect 15 0 13 1;
#X connect 16 0 0 0;
#X connect 17 0 5 0;
#X connect 17 1 16 0;
#X connect 17 2 8 1;
#X connect 17 3 11 0;
#X connect 18 0 19 0;
#X connect 18 1 10 0;
#X connect 18 2 8 0;
#X connect 19 0 1 0;
#X connect 19 0 7 1;
#X connect 19 0 12 0;
#X restore 172 189 pd listmin;
#X obj 101 280 t b f;
#X msg 101 311 16383;
#X obj 154 311 route 0;
#X obj 100 367 / 1;
#X text 146 366 Values per second;
#X text 264 188 end begin fader;
#X text 285 134 end begin of events;
#X text 161 248 duration of fader;
#X obj 60 79 inlet;
#X obj 200 79 inlet;
#X obj 62 454 outlet;
#X obj 154 454 outlet;
#X obj 247 454 outlet;
#X obj 347 454 outlet;
#X text 153 490 end Events;
#X text 58 492 begin Events;
#X text 347 484 val per sec;
#X text 247 484 begin Fader;
#X text 58 53 bang;
#X text 201 50 bang;
#X text 148 35 end values;
#X text 263 32 begin values;
#X connect 0 0 2 1;
#X connect 1 0 3 1;
#X connect 2 0 5 0;
#X connect 2 0 18 0;
#X connect 3 0 6 0;
#X connect 3 0 17 0;
#X connect 4 0 7 0;
#X connect 5 0 4 0;
#X connect 6 0 4 1;
#X connect 6 0 19 0;
#X connect 7 0 8 0;
#X connect 7 1 9 0;
#X connect 8 0 10 0;
#X connect 9 1 10 1;
#X connect 10 0 20 0;
#X connect 15 0 2 0;
#X connect 16 0 3 0;
#X restore 654 476 pd combinedEventDuration;
#X text 786 184 read through scoredata of events;
#X obj 558 994 pack float 127 float float float;
#X text 844 473 calculate 1.begin of Events 2.end of Events 3.begin of Fader 4.Values per Second;
#X obj 592 185 text get scoredata;
#X obj 592 155 - 1;
#X text 630 155 compensate for array starting at 0;
#X msg 554 54 45 46 47 48 49 50;
#X msg 730 21 1 2;
#X connect 0 0 25 0;
#X connect 2 0 31 1;
#X connect 2 0 38 0;
#X connect 3 0 4 0;
#X connect 4 0 6 0;
#X connect 4 1 5 1;
#X connect 5 0 33 1;
#X connect 6 0 5 0;
#X connect 6 1 33 3;
#X connect 9 0 35 3;
#X connect 10 0 35 4;
#X connect 12 0 27 0;
#X connect 14 0 10 0;
#X connect 15 0 18 0;
#X connect 16 0 35 0;
#X connect 16 1 15 1;
#X connect 17 0 15 0;
#X connect 17 1 20 0;
#X connect 17 2 16 1;
#X connect 18 0 19 0;
#X connect 18 0 30 0;
#X connect 19 0 18 1;
#X connect 20 0 18 1;
#X connect 21 0 16 0;
#X connect 22 0 9 0;
#X connect 23 0 22 0;
#X connect 24 0 14 0;
#X connect 25 0 31 0;
#X connect 25 1 33 0;
#X connect 25 2 33 2;
#X connect 25 3 2 0;
#X connect 27 0 35 2;
#X connect 28 0 23 0;
#X connect 29 0 24 0;
#X connect 30 0 21 0;
#X connect 30 1 28 0;
#X connect 30 2 29 0;
#X connect 31 0 17 0;
#X connect 33 0 23 1;
#X connect 33 1 24 1;
#X connect 33 2 14 1;
#X connect 33 2 22 1;
#X connect 33 3 10 1;
#X connect 33 3 9 1;
#X connect 35 0 1 0;
#X connect 37 0 3 0;
#X connect 38 0 37 0;
#X connect 40 0 25 0;
#X connect 41 0 25 0;
