#N canvas 0 288 1728 559 12;
#X text 279 202 Set receive name;
#X obj 400 203 symbol \$1;
#X obj 501 123 loadbang;
#N canvas 0 38 450 216 receive-\$0 0;
#X obj 145 115 r fader1;
#X obj 145 150 s out-1246;
#X connect 0 0 1 0;
#X restore 182 246 pd receive-\$0;
#X obj 182 272 r out-\$0;
#X msg 430 294 clear \, obj 145 115 r \$1 \, obj 145 150 s out-\$2 \, connect 0 0 1 0;
#X obj 430 331 s pd-receive-\$0;
#X obj 431 272 pack s \$0;
#X obj 501 166 t b b;
#X obj 364 246 sel symbol;
#X msg 530 195 symbol;
#X obj 182 363 outlet;
#X obj 400 28 inlet;
#X connect 1 0 9 0;
#X connect 2 0 8 0;
#X connect 4 0 11 0;
#X connect 5 0 6 0;
#X connect 7 0 5 0;
#X connect 8 0 1 0;
#X connect 8 1 10 0;
#X connect 9 1 7 0;
#X connect 10 0 9 1;
#X connect 12 0 1 0;
